<?xml version="1.0" encoding="utf-8"?>
<!-- Generator: Adobe Illustrator 24.0.2, SVG Export Plug-In . SVG Version: 6.00 Build 0)  -->
<svg version="1.1" id="Layer_1" xmlns="http://www.w3.org/2000/svg" xmlns:xlink="http://www.w3.org/1999/xlink" x="0px" y="0px"
	 viewBox="0 0 136.6 136.6" style="enable-background:new 0 0 136.6 136.6;" xml:space="preserve">
<style type="text/css">
	.st0{fill:#0A000F;}
	.st1{fill:#FFFFFF;}
	.st2{fill:url(#XMLID_2_);}
	.st3{fill:url(#XMLID_3_);}
	.st4{fill:url(#XMLID_4_);}
	.st5{fill:url(#XMLID_5_);}
</style>
<g id="Elements">
	<g>
		
			<radialGradient id="XMLID_2_" cx="-14.9224" cy="-48.5455" r="284.7152" gradientTransform="matrix(1 0 0 -1 0 135.8898)" gradientUnits="userSpaceOnUse">
			<stop  offset="0" style="stop-color:#F9ED41"/>
			<stop  offset="0.2412" style="stop-color:#FF833D"/>
			<stop  offset="0.401" style="stop-color:#EE5568"/>
			<stop  offset="0.4888" style="stop-color:#E7407B"/>
			<stop  offset="1" style="stop-color:#0028FF"/>
		</radialGradient>
		<path id="XMLID_348_" class="st2" d="M96.9,136.6H39.7C17.8,136.6,0,118.8,0,96.9V39.7C0,17.8,17.8,0,39.7,0h57.2
			c21.9,0,39.7,17.8,39.7,39.7v57.2C136.6,118.8,118.8,136.6,96.9,136.6z"/>
		<path id="XMLID_345_" class="st1" d="M83.2,106.8H53.3c-13,0-23.6-10.6-23.6-23.6V53.3c0-13,10.6-23.6,23.6-23.6h29.9
			c13,0,23.6,10.6,23.6,23.6v29.9C106.8,96.2,96.2,106.8,83.2,106.8z M53.3,35.5c-9.8,0-17.8,8-17.8,17.8v29.9
			c0,9.8,8,17.8,17.8,17.8h29.9c9.8,0,17.8-8,17.8-17.8V53.3c0-9.8-8-17.8-17.8-17.8L53.3,35.5L53.3,35.5z"/>
		<path id="XMLID_342_" class="st1" d="M68.3,87.8c-10.7,0-19.5-8.7-19.5-19.5s8.7-19.5,19.5-19.5s19.5,8.7,19.5,19.5
			C87.8,79,79,87.8,68.3,87.8z M68.3,54.7c-7.5,0-13.6,6.1-13.6,13.6s6.1,13.6,13.6,13.6s13.6-6.1,13.6-13.6S75.8,54.7,68.3,54.7z"
			/>
		<path id="XMLID_341_" class="st1" d="M95,46.7c0,2.8-2.3,5.1-5.1,5.1s-5.1-2.3-5.1-5.1s2.3-5.1,5.1-5.1S95,43.9,95,46.7z"/>
	</g>
</g>
</svg>
