<?xml version="1.0" encoding="utf-8"?>
<!-- Generator: Adobe Illustrator 24.0.2, SVG Export Plug-In . SVG Version: 6.00 Build 0)  -->
<svg version="1.1" id="Layer_1" xmlns="http://www.w3.org/2000/svg" xmlns:xlink="http://www.w3.org/1999/xlink" x="0px" y="0px"
	 viewBox="0 0 236.74 145.12" style="enable-background:new 0 0 236.74 145.12;" xml:space="preserve">
<style type="text/css">
	.st0{fill:#1B4CA1;}
</style>
<g>
	<g>
		<path class="st0" d="M233.45,74.21c-0.88-1.29-2.01-2.58-3.31-3.86l6.47-1.55c-0.45-6.42-0.43-12.17-5.35-17.15
			c-3.33-3.33-7.64-4.78-12.21-4.78c-5.28,0-9.8,1.94-12.92,5.24c-3.15-3.45-7.88-5.35-13.99-5.23c-6.18,0.3-9.26,2.79-14.24,6.02
			l2.3,4.49c-1.23-0.35-2.52-0.56-3.84-0.64v-9.87h-7.22c-1.28,0-2.5,0.16-3.64,0.47h-9.86l-8.54,0.14c-1.79-0.43-3.76-0.64-5.9-0.6
			c-1.96,0.1-3.61,0.42-5.11,0.91V25.03l-0.01-7.42c0.1-2.87-0.46-5.67-1.75-8.24c-10.72-21.04-46.31-3.56-28.28,21.96
			c3.15,3.6,5.3,8.14,5.3,8.14c2.22,1.7,2.6,4.9,2.11,8.45c-1.99-0.7-4.11-1.03-6.29-1.03c-5.1,0-9.48,1.81-12.58,4.9
			c-3.44-4.27-8.72-6.57-14.67-6.4c-3.2,0-5.73,0.91-8.06,2.28h-1.44V36.19H50v11.47c0,0-0.22,0-0.72,0.94
			c-2.44-1.18-5.13-1.72-7.92-1.72l-1.33,0.04c-0.37-5.74-5.14-10.28-10.98-10.28c-6.07,0-10.99,4.92-10.99,11
			c0,1.36,0.25,2.66,0.7,3.87l-0.12,0.65H0l10.9,50.5h17.42c0,0,0.38-1.9,0.92-5c3.34,3.09,7.52,4.59,12.12,4.59
			c5.01,0,9.35-1.69,12.48-4.63c2.55,2.87,6.37,4.56,11.37,4.56c2.87,0,5.68-0.51,8.44-1.26c2.04,0.81,4.43,1.26,7.18,1.26
			c4.98,0,9.8-1.81,13.21-5.55c3.47,3.79,8.06,5.62,13.14,5.62c3.29,0,6.3-0.73,8.86-2.07c2.25,11.33,15.96,17.5,26.26,10.93
			c3.68-2.35,5.69-5.21,6.88-8.41c5.74-0.73,9.47-1.18,12.87-3.64c0.87,1,1.87,1.88,2.98,2.64c0.27,2.18-0.05,4.12-1.33,5.53
			c0,0,0.46,1.43-1.04,3.97c-0.81,1.52-2.04,3.41-2.77,4.97c-5.64,11.94-1.5,29.04,14.56,28.95c3.96,0.09,7.55-1.22,10.64-3.55
			c3.04-2.1,5.27-4.95,6.42-8.57c0.83-2.26,1.23-4.76,1.33-7.42v-1.19l0.02-22.21c5.01,0,9.57-1.74,13.05-5.47
			c0,0,0.07-0.01,0.11-0.03c3.47,3.8,7.95,5.56,13.03,5.56c10.27,0,17.69-7.1,17.69-17.46C236.74,80.95,235.63,77.37,233.45,74.21z
			 M29.06,43.1c2.5,0,4.54,2.03,4.54,4.54c0,2.51-2.03,4.53-4.54,4.53c-2.5,0-4.54-2.03-4.54-4.53
			C24.52,45.13,26.55,43.1,29.06,43.1z M16.11,96.2L8,58.62h6.97l4.18,21.91h0.81l5.14-27.69c1.16,0.69,2.52,1.09,3.97,1.09
			c0.91,0,1.78-0.16,2.59-0.44L23.03,96.2H16.11z M49.52,92.81c-2.06,1.99-4.78,2.99-8.16,2.99c-3.43,0-6.22-1.17-8.37-3.51
			c-1.9-2.1-3.13-4.89-3.6-8.38c-0.31-2.24-0.9-3.91-1.75-5.01l1.61-7.82c1.46,0.58,2.74,1.49,3.86,2.7
			c1.9,2.09,3.14,4.88,3.61,8.38c0.6,4.4,2.26,6.6,4.96,6.6c2.33,0,3.49-1.19,3.49-3.56c0-2.14-2.61-5.17-7.83-9.08
			c-4.7-3.5-7.04-7.43-7.04-11.76c0-3.31,1.02-5.96,3.04-7.98c2.03-2.02,4.71-3.03,8.03-3.03c3.18,0,5.73,0.96,7.64,2.87
			c1.84,1.87,2.87,4.4,3.1,7.6l-7.11,1.7c-0.56-3.41-1.89-5.12-4.01-5.12c-2.17,0-3.25,1.19-3.25,3.55c0,1.74,1.78,4.03,5.34,6.85
			l2.23,1.82c2.4,1.99,4.12,3.75,5.15,5.26c1.44,2.09,2.16,4.4,2.16,6.92C52.6,88.14,51.57,90.81,49.52,92.81z M65.21,95.72
			c-5.83,0-8.75-3.2-8.75-9.61V60.55h-3.33c-0.51-1.91-1.38-3.67-2.97-5.28c-0.43-0.43-0.87-0.81-1.35-1.15h7.66V42.65h7.52v11.47
			h8.39l3.31,6.43h-11.7v24.86c0,2.32,1.11,3.48,3.32,3.48c0.25,0,1.05-0.09,1.91-0.26c0.62,2.38,1.67,4.41,3.28,5.91
			C69.33,95.61,66.49,95.72,65.21,95.72z M115.34,92.81c-2.06,1.99-4.78,2.99-8.16,2.99c-3.43,0-6.22-1.17-8.37-3.51
			c-1.9-2.1-3.14-4.89-3.6-8.38c-0.44-3.2-1.44-5.24-3-6.11v6.05c0,3.46-1.02,6.28-3.06,8.48c-2.12,2.27-4.89,3.41-8.32,3.41
			c-3.43,0-6.07-1.03-7.92-3.08c-1.85-2.05-2.77-5.5-2.77-10.35c0-8.57,4.77-12.67,14.33-12.3v-5.43c0.02-3.76-0.91-6.38-3.1-6.6
			c-2.43-0.24-3.75,0.79-4.03,2.68l-3.44-6.67c1.9-1.45,4.24-2.14,6.04-2.14c6.85-0.28,12.27,4.09,12.27,12.49v6.02
			c2.69,0.32,4.93,1.46,6.72,3.42c1.9,2.09,3.14,4.88,3.61,8.38c0.61,4.4,2.26,6.6,4.96,6.6c2.32,0,3.49-1.19,3.49-3.56
			c0-2.14-2.61-5.17-7.83-9.08c-4.7-3.5-7.05-7.43-7.05-11.76c0-3.31,1.02-5.96,3.04-7.98c2.02-2.02,4.71-3.03,8.03-3.03
			c3.18,0,5.72,0.96,7.64,2.87c1.84,1.87,2.87,4.4,3.1,7.6l-7.11,1.7c-0.56-3.41-1.89-5.12-4.01-5.12c-2.17,0-3.25,1.19-3.25,3.55
			c0,1.74,1.78,4.03,5.34,6.85l2.23,1.82c2.4,1.99,4.11,3.75,5.14,5.26c1.44,2.09,2.16,4.4,2.16,6.92
			C118.42,88.14,117.39,90.81,115.34,92.81z M143.71,98.66c-0.8,3.21-2.46,5.47-4.88,7.01c-2.43,1.55-9.74,2.62-13.77-1.41
			c-1.91-1.91-2.9-4.34-2.9-7.36l0.01-18.5l-0.01-35.45c-0.66,1.24-1.5,2.28-2.51,3.1c0.2-0.69,0.32-1.4,0.37-2.12
			c0.19-2.86-0.83-5.53-3.07-8.03c-0.52-0.57-1.07-1.08-1.65-1.54c1.94-0.54-2.1-4.09-3.97-6.75c-3.38-4.78-4.4-9.24-3.06-13.36
			c1.03-3.15,2.81-5.36,5.36-6.65c2.55-1.29,5.41-1.42,8.57-0.4c3.02,0.99,5.14,2.68,6.37,5.09c0.77,1.53,1.13,3.24,1.05,5.1v7.65
			v68.95c-0.19,3.44,0.7,5.39,2.74,5.93c2.34,0.62,3.79-1.44,4.02-2.66c0.05-0.25,0.06-0.51,0.05-0.8c1.54,0.67,3.39,1.03,5.6,1.03
			c0.66,0,1.29-0.04,1.91-0.11C143.9,97.8,143.82,98.23,143.71,98.66z M153.31,83.84c0,3.46-1.02,6.28-3.07,8.48
			c-2.12,2.27-4.89,3.41-8.32,3.41c-3.42,0-6.06-1.03-7.92-3.08c-1.85-2.05-2.78-5.5-2.78-10.35c0-8.57,4.78-12.67,14.33-12.3v-4.05
			c0.03-3.76-1.06-5.64-3.25-5.64c-1.24,0-2.54,0.24-3.9,0.73l-3.02-5.89c1.68-1.09,3.7-1.7,6.05-1.81
			c7.92-0.15,11.88,3.97,11.88,12.37V83.84z M161.16,67.76v23.13c-0.34,0.5-0.71,0.98-1.13,1.42c-1.72,1.85-3.88,2.94-6.47,3.29
			v-5.26c1-1.97,1.5-4.23,1.5-6.72V65.5c0-3.03-0.5-5.6-1.5-7.68V53.8h2.09h5.51v3.82v1.66l0.46-0.88c1.87-3.38,4.38-5.07,7.54-5.07
			h0.76v8.45c-0.71-0.35-1.53-0.53-2.46-0.53c-1.98,0-3.5,0.49-4.54,1.46C161.74,63.79,161.16,65.47,161.16,67.76z M186.38,124.39
			v1.07c-0.08,2.23-0.41,3.95-0.98,5.47c-0.68,2.22-2,3.96-3.99,5.35c-2.13,1.65-4.4,2.45-6.82,2.39c-1.06,0.03-2.1-0.12-3.13-0.43
			c-2.73-0.83-4.88-2.7-6.43-5.62c-0.18-0.33-0.33-0.66-0.48-1c-0.56-1.34-0.86-2.77-0.89-4.28c-0.07-2.56,0.62-5.37,2.06-8.42
			c1.39-2.94,4.75-7.14,2.75-7.33c0.49-0.55,0.95-1.15,1.36-1.8c1.78-2.85,2.32-5.66,1.63-8.44c-0.17-0.7-0.41-1.38-0.73-2.03
			c1.79,1,3.26,2.59,4.41,4.77c1.19,2.22,1.64,4.6,1.35,7.12c-0.2,1.82-0.89,4.17-2.07,7.06l-1.12,2.65
			c-1.82,4.17-2.31,7.02-1.49,8.55c0.27,0.51,0.56,0.92,0.87,1.23c1.4,1.05,2.73,1.01,4.3-0.4c1.29-1.16,1.8-4.01,1.52-8.55
			l0.16-23.19c-9.55,0.38-14.33-3.72-14.33-12.3c0-4.84-1.32-15.93,2.78-20.03c1.95-1.96,4.49-3.08,7.92-3.08
			c3.43,0,6.2,1.14,8.32,3.41c1.14,1.21,1.95,2.62,2.45,4.22c-3.52,2.24-5.39,6.13-5.39,11.65c0,6.13,1.53,11.31,6,13.68V124.39z
			 M227.2,92.81c-2.06,1.99-4.78,2.99-8.15,2.99c-3.44,0-6.23-1.17-8.37-3.51c-1.9-2.1-3.13-4.89-3.6-8.38
			c-0.42-3.09-1.37-5.1-2.84-6.01v5.95c0,3.46-1.02,6.28-3.06,8.48c-2.12,2.27-4.89,3.41-8.32,3.41c-3.42,0-6.07-1.03-7.92-3.08
			c-1.85-2.05-2.78-5.5-2.78-10.35c0-8.57,4.78-12.67,14.34-12.3v-4.05c0.03-3.76-1.06-5.64-3.25-5.64c-1.23,0-2.54,0.24-3.9,0.73
			l-3.02-5.89c1.68-1.09,3.7-1.7,6.05-1.81c7.91-0.15,11.87,3.97,11.87,12.37v4.66c2.61,0.35,4.8,1.48,6.56,3.4
			c1.89,2.09,3.14,4.88,3.6,8.38c0.61,4.4,2.27,6.6,4.97,6.6c2.33,0,3.49-1.19,3.49-3.56c0-2.14-2.61-5.17-7.84-9.08
			c-4.69-3.5-7.04-7.43-7.04-11.76c0-3.31,1.01-5.96,3.04-7.98c2.03-2.02,4.7-3.03,8.03-3.03c3.17,0,5.72,0.96,7.64,2.87
			c1.84,1.87,2.87,4.4,3.1,7.6l-7.11,1.7c-0.56-3.41-1.89-5.12-4-5.12c-2.17,0-3.26,1.19-3.26,3.55c0,1.74,1.78,4.03,5.34,6.85
			l2.23,1.82c2.4,1.99,4.11,3.75,5.14,5.26c1.44,2.09,2.16,4.4,2.16,6.92C230.29,88.14,229.26,90.81,227.2,92.81z"/>
		<path class="st0" d="M119.67,13.78c-2.11-0.48-3.46,0.12-4.19,2.38c-0.54,1.66,0.44,4.38,2.96,8.16l1.56,2.42
			c0.89,1.41,1.62,2.7,2.18,3.86v-5.56l0.01-8.44C121.81,15.05,120.9,14.06,119.67,13.78z"/>
		<path class="st0" d="M81.1,76.86c-2.24,0-3.35,1.58-3.33,4.73v1.12l0.11,1.22c0.05,3.15,1.13,4.73,3.25,4.73
			c2.24,0,3.35-1.58,3.33-4.73V82.9l-0.12-1.3C84.3,78.44,83.21,76.86,81.1,76.86z"/>
		<path class="st0" d="M175.3,70.21c-2.12,0-3.21,1.58-3.25,4.74l-0.11,4.51v2.61v4.51c-0.03,3.16,1.08,4.73,3.33,4.73
			c2.12,0,3.2-1.58,3.25-4.73l0.11-4.51v-2.61v-4.51C178.66,71.79,177.54,70.21,175.3,70.21z"/>
		<path class="st0" d="M142.19,76.86c-2.25,0-3.36,1.58-3.33,4.73v1.12l0.11,1.22c0.05,3.15,1.13,4.73,3.26,4.73
			c2.24,0,3.35-1.58,3.32-4.73V82.9l-0.12-1.3C145.4,78.44,144.31,76.86,142.19,76.86z"/>
		<path class="st0" d="M193.11,76.86c-2.24,0-3.34,1.58-3.32,4.73v1.12l0.11,1.22c0.05,3.15,1.13,4.73,3.25,4.73
			c2.24,0,3.36-1.58,3.33-4.73V82.9l-0.12-1.3C196.33,78.44,195.24,76.86,193.11,76.86z"/>
		<rect x="64.23" y="115.72" class="st0" width="2.94" height="9.4"/>
		<path class="st0" d="M62.85,122.73c-0.3,0-0.5-0.07-0.61-0.21c-0.1-0.13-0.15-0.29-0.14-0.51v-9.64h-2.95v10.35
			c-0.01,0.66,0.19,1.25,0.59,1.76c0.41,0.51,1.1,0.78,2.08,0.81c0.33,0,0.66-0.03,0.99-0.09c0.33-0.06,0.64-0.13,0.91-0.21v-2.34
			l-0.46,0.05L62.85,122.73z"/>
		<path class="st0" d="M34.37,112.38h-5.76v12.74h3.19v-4.42h2.65c1.03-0.01,1.87-0.22,2.52-0.63c0.64-0.41,1.12-0.94,1.43-1.58
			c0.29-0.64,0.44-1.32,0.44-2.03c-0.01-1.2-0.41-2.18-1.18-2.93C36.88,112.79,35.78,112.4,34.37,112.38z M35.18,117.83
			c-0.34,0.29-0.78,0.43-1.34,0.43h-2.05v-3.38h2.05c0.58,0,1.04,0.14,1.36,0.41c0.33,0.28,0.49,0.7,0.5,1.25
			C35.69,117.12,35.53,117.55,35.18,117.83z"/>
		<path class="st0" d="M54.96,115.53c-0.47,0-0.93,0.1-1.39,0.31c-0.46,0.21-0.87,0.53-1.21,0.98c0-4.43-0.02-4.43-0.02-4.43h-2.95
			v12.74h2.88l0.06-0.88c0.27,0.34,0.61,0.61,1.02,0.81c0.41,0.2,0.84,0.29,1.3,0.3c1.06-0.01,1.95-0.32,2.67-0.93
			c0.72-0.61,1.1-1.47,1.12-2.57v-2.85c-0.01-1.1-0.33-1.95-0.95-2.56C56.86,115.84,56.02,115.54,54.96,115.53z M55.47,121.62
			c-0.02,0.54-0.17,0.94-0.47,1.19c-0.3,0.25-0.65,0.37-1.05,0.37c-0.41,0-0.78-0.12-1.1-0.36c-0.33-0.25-0.5-0.62-0.51-1.14v-2.16
			c0.02-0.64,0.19-1.08,0.51-1.33c0.33-0.25,0.69-0.38,1.07-0.36c0.44,0,0.8,0.13,1.09,0.39c0.3,0.26,0.44,0.64,0.45,1.13V121.62z"
			/>
		<path class="st0" d="M45.35,121.03c-0.01,0.65-0.15,1.14-0.42,1.47c-0.27,0.32-0.63,0.48-1.08,0.48
			c-0.54-0.02-0.92-0.18-1.14-0.52c-0.22-0.34-0.32-0.75-0.32-1.25v-5.49h-2.95v6.51c0.03,1.04,0.33,1.82,0.92,2.33
			c0.59,0.51,1.31,0.76,2.18,0.76c0.58,0,1.11-0.13,1.6-0.37c0.48-0.25,0.9-0.62,1.29-1.11v1.28h2.88v-9.4h-2.97V121.03z"/>
		<rect x="64.23" y="112.27" class="st0" width="2.94" height="2.2"/>
		<path class="st0" d="M106.18,116.58c-0.27-0.33-0.61-0.59-1.03-0.77c-0.43-0.18-0.87-0.27-1.33-0.28
			c-1.06,0.01-1.93,0.32-2.61,0.93c-0.69,0.61-1.05,1.46-1.07,2.55v2.85c0.02,1.1,0.33,1.95,0.95,2.56c0.62,0.6,1.47,0.91,2.53,0.92
			c0.48-0.01,0.96-0.12,1.43-0.36c0.49-0.23,0.88-0.55,1.25-0.97v1.1h2.88v-12.74h-2.95L106.18,116.58z M106.24,121.44
			c-0.03,0.58-0.19,1-0.52,1.25c-0.32,0.24-0.68,0.37-1.08,0.36c-0.43-0.01-0.79-0.13-1.08-0.4c-0.3-0.26-0.45-0.64-0.45-1.14v-2.2
			c0.01-0.57,0.18-0.99,0.48-1.25c0.31-0.26,0.65-0.38,1.03-0.38c0.41,0,0.78,0.12,1.11,0.36c0.32,0.25,0.49,0.63,0.51,1.16V121.44z
			"/>
		<path class="st0" d="M116.53,115.92c-0.66-0.26-1.36-0.4-2.1-0.4c-0.77,0-1.49,0.15-2.17,0.45c-0.69,0.3-1.24,0.75-1.67,1.36
			c-0.43,0.61-0.65,1.37-0.67,2.31v1.88c0.02,0.9,0.25,1.63,0.71,2.2c0.45,0.56,1.04,0.98,1.75,1.25c0.7,0.27,1.44,0.4,2.21,0.4
			c0.86,0,1.57-0.08,2.15-0.22c0.56-0.15,1.07-0.35,1.52-0.6l-0.88-2.09c-0.22,0.1-0.55,0.23-0.98,0.38
			c-0.44,0.15-0.88,0.23-1.32,0.24c-0.33,0-0.64-0.06-0.97-0.17c-0.33-0.11-0.61-0.27-0.82-0.49c-0.22-0.22-0.34-0.49-0.35-1.03
			h5.85v-2.36c-0.01-0.77-0.22-1.42-0.64-1.94C117.73,116.58,117.19,116.19,116.53,115.92z M115.92,119.62h-2.99v-0.34
			c0.02-0.53,0.17-0.91,0.46-1.16c0.28-0.25,0.65-0.37,1.08-0.36c0.39,0,0.72,0.11,1.01,0.33c0.28,0.22,0.43,0.58,0.44,1.07V119.62z
			"/>
		<path class="st0" d="M99.46,123.87l-0.03-0.81v-4.29c-0.01-0.79-0.21-1.42-0.62-1.9c-0.39-0.48-0.92-0.82-1.56-1.03
			c-0.63-0.21-1.32-0.31-2.05-0.31c-0.73,0-1.41,0.11-2.04,0.32c-0.63,0.21-1.14,0.54-1.54,0.99c-0.4,0.44-0.6,1-0.6,1.68v0.34h2.62
			v-0.29c0-0.26,0.12-0.48,0.35-0.66c0.23-0.18,0.58-0.28,1.06-0.29c0.48,0,0.84,0.11,1.09,0.31c0.25,0.2,0.38,0.49,0.38,0.87v0.73
			h-1.65c-0.65,0-1.29,0.1-1.94,0.3c-0.63,0.2-1.17,0.53-1.6,0.98c-0.43,0.45-0.64,1.04-0.67,1.78c0.02,0.89,0.31,1.57,0.88,2.03
			c0.57,0.46,1.31,0.7,2.23,0.7c0.48,0.01,0.98-0.06,1.48-0.23c0.51-0.17,0.96-0.51,1.43-1.02l0.03,0.3l0.04,0.47l0.02,0.29h2.84
			c-0.03-0.07-0.05-0.22-0.08-0.46L99.46,123.87z M96.48,121.71c-0.02,0.45-0.15,0.81-0.4,1.09c-0.25,0.27-0.64,0.41-1.18,0.41
			c-0.45-0.01-0.78-0.1-0.99-0.28c-0.21-0.18-0.31-0.43-0.31-0.74c0.01-0.38,0.15-0.65,0.42-0.8c0.27-0.15,0.62-0.23,1.07-0.22h1.41
			L96.48,121.71z"/>
		<path class="st0" d="M74.51,115.92c-0.66-0.26-1.35-0.39-2.11-0.39c-0.76,0-1.49,0.15-2.17,0.45c-0.68,0.3-1.23,0.76-1.67,1.37
			c-0.43,0.61-0.66,1.37-0.67,2.29v1.88c0.01,0.9,0.24,1.63,0.68,2.2c0.44,0.56,1,0.98,1.69,1.25c0.69,0.27,1.41,0.4,2.18,0.4
			c0.75,0,1.44-0.12,2.09-0.38c0.65-0.25,1.17-0.63,1.58-1.13c0.4-0.51,0.61-1.15,0.62-1.92v-0.43l-2.87,0.25
			c-0.02,0.49-0.16,0.85-0.43,1.07c-0.27,0.22-0.59,0.33-0.98,0.33c-0.48,0-0.86-0.14-1.14-0.41c-0.28-0.27-0.42-0.64-0.43-1.13
			v-2.32c0.01-0.53,0.17-0.92,0.46-1.17c0.29-0.24,0.65-0.36,1.08-0.35c0.39,0,0.72,0.11,1,0.33c0.29,0.22,0.43,0.58,0.44,1.07v0.29
			h2.86v-0.41c-0.01-0.78-0.23-1.42-0.64-1.94C75.7,116.57,75.16,116.18,74.51,115.92z"/>
		<path class="st0" d="M87.01,116.58c-0.27-0.33-0.62-0.59-1.03-0.77c-0.43-0.18-0.87-0.27-1.33-0.28
			c-1.06,0.01-1.93,0.32-2.61,0.93c-0.69,0.61-1.05,1.46-1.07,2.55v2.85c0.01,1.1,0.33,1.95,0.95,2.56c0.62,0.6,1.47,0.91,2.54,0.92
			c0.47-0.01,0.95-0.12,1.43-0.36c0.48-0.23,0.88-0.55,1.25-0.97v1.1h2.88v-12.74h-2.95L87.01,116.58z M87.06,121.44
			c-0.02,0.58-0.19,1-0.51,1.25c-0.32,0.24-0.68,0.37-1.08,0.36c-0.43-0.01-0.79-0.13-1.08-0.4c-0.29-0.26-0.44-0.64-0.46-1.14v-2.2
			c0.02-0.57,0.18-0.99,0.48-1.25c0.31-0.26,0.65-0.38,1.04-0.38c0.41,0,0.78,0.12,1.11,0.36c0.32,0.25,0.49,0.63,0.5,1.16V121.44z"
			/>
		<rect x="77.27" y="115.72" class="st0" width="2.95" height="9.4"/>
		<rect x="77.27" y="112.27" class="st0" width="2.95" height="2.2"/>
	</g>
</g>
</svg>
