<?xml version="1.0" encoding="utf-8"?>
<!-- Generator: Adobe Illustrator 24.0.2, SVG Export Plug-In . SVG Version: 6.00 Build 0)  -->
<svg version="1.1" id="Layer_1" xmlns="http://www.w3.org/2000/svg" xmlns:xlink="http://www.w3.org/1999/xlink" x="0px" y="0px"
	 viewBox="0 0 236.7 145.1" style="enable-background:new 0 0 236.7 145.1;" xml:space="preserve">
<style type="text/css">
	.st0{fill:#FFFFFF;}
</style>
<g>
	<g>
		<path class="st0" d="M233.4,74.2c-0.9-1.3-2-2.6-3.3-3.9l6.5-1.6c-0.4-6.4-0.4-12.2-5.4-17.2c-3.3-3.3-7.6-4.8-12.2-4.8
			c-5.3,0-9.8,1.9-12.9,5.2c-3.1-3.5-7.9-5.3-14-5.2c-6.2,0.3-9.3,2.8-14.2,6l2.3,4.5c-1.2-0.3-2.5-0.6-3.8-0.6v-9.9h-7.2
			c-1.3,0-2.5,0.2-3.6,0.5h-9.9l-8.5,0.1c-1.8-0.4-3.8-0.6-5.9-0.6c-2,0.1-3.6,0.4-5.1,0.9V25l0-7.4c0.1-2.9-0.5-5.7-1.8-8.2
			c-10.7-21-46.3-3.6-28.3,22c3.2,3.6,5.3,8.1,5.3,8.1c2.2,1.7,2.6,4.9,2.1,8.5c-2-0.7-4.1-1-6.3-1c-5.1,0-9.5,1.8-12.6,4.9
			c-3.4-4.3-8.7-6.6-14.7-6.4c-3.2,0-5.7,0.9-8.1,2.3h-1.4V36.2H50v11.5c0,0-0.2,0-0.7,0.9c-2.4-1.2-5.1-1.7-7.9-1.7l-1.3,0
			c-0.4-5.7-5.1-10.3-11-10.3c-6.1,0-11,4.9-11,11c0,1.4,0.3,2.7,0.7,3.9l-0.1,0.7H0l10.9,50.5h17.4c0,0,0.4-1.9,0.9-5
			c3.3,3.1,7.5,4.6,12.1,4.6c5,0,9.3-1.7,12.5-4.6c2.5,2.9,6.4,4.6,11.4,4.6c2.9,0,5.7-0.5,8.4-1.3c2,0.8,4.4,1.3,7.2,1.3
			c5,0,9.8-1.8,13.2-5.6c3.5,3.8,8.1,5.6,13.1,5.6c3.3,0,6.3-0.7,8.9-2.1c2.3,11.3,16,17.5,26.3,10.9c3.7-2.3,5.7-5.2,6.9-8.4
			c5.7-0.7,9.5-1.2,12.9-3.6c0.9,1,1.9,1.9,3,2.6c0.3,2.2-0.1,4.1-1.3,5.5c0,0,0.5,1.4-1,4c-0.8,1.5-2,3.4-2.8,5
			c-5.6,11.9-1.5,29,14.6,29c4,0.1,7.6-1.2,10.6-3.6c3-2.1,5.3-4.9,6.4-8.6c0.8-2.3,1.2-4.8,1.3-7.4v-1.2l0-22.2
			c5,0,9.6-1.7,13.1-5.5c0,0,0.1,0,0.1,0c3.5,3.8,7.9,5.6,13,5.6c10.3,0,17.7-7.1,17.7-17.5C236.7,80.9,235.6,77.4,233.4,74.2z
			 M29.1,43.1c2.5,0,4.5,2,4.5,4.5c0,2.5-2,4.5-4.5,4.5c-2.5,0-4.5-2-4.5-4.5C24.5,45.1,26.5,43.1,29.1,43.1z M16.1,96.2L8,58.6h7
			l4.2,21.9H20l5.1-27.7c1.2,0.7,2.5,1.1,4,1.1c0.9,0,1.8-0.2,2.6-0.4L23,96.2H16.1z M49.5,92.8c-2.1,2-4.8,3-8.2,3
			c-3.4,0-6.2-1.2-8.4-3.5c-1.9-2.1-3.1-4.9-3.6-8.4c-0.3-2.2-0.9-3.9-1.8-5l1.6-7.8c1.5,0.6,2.7,1.5,3.9,2.7
			c1.9,2.1,3.1,4.9,3.6,8.4c0.6,4.4,2.3,6.6,5,6.6c2.3,0,3.5-1.2,3.5-3.6c0-2.1-2.6-5.2-7.8-9.1c-4.7-3.5-7-7.4-7-11.8
			c0-3.3,1-6,3-8c2-2,4.7-3,8-3c3.2,0,5.7,1,7.6,2.9c1.8,1.9,2.9,4.4,3.1,7.6L45,65.5c-0.6-3.4-1.9-5.1-4-5.1
			c-2.2,0-3.3,1.2-3.3,3.5c0,1.7,1.8,4,5.3,6.8l2.2,1.8c2.4,2,4.1,3.8,5.2,5.3c1.4,2.1,2.2,4.4,2.2,6.9
			C52.6,88.1,51.6,90.8,49.5,92.8z M65.2,95.7c-5.8,0-8.8-3.2-8.8-9.6V60.5h-3.3c-0.5-1.9-1.4-3.7-3-5.3c-0.4-0.4-0.9-0.8-1.3-1.2
			h7.7V42.6H64v11.5h8.4l3.3,6.4H64v24.9c0,2.3,1.1,3.5,3.3,3.5c0.3,0,1.1-0.1,1.9-0.3c0.6,2.4,1.7,4.4,3.3,5.9
			C69.3,95.6,66.5,95.7,65.2,95.7z M115.3,92.8c-2.1,2-4.8,3-8.2,3c-3.4,0-6.2-1.2-8.4-3.5c-1.9-2.1-3.1-4.9-3.6-8.4
			c-0.4-3.2-1.4-5.2-3-6.1v6.1c0,3.5-1,6.3-3.1,8.5c-2.1,2.3-4.9,3.4-8.3,3.4s-6.1-1-7.9-3.1s-2.8-5.5-2.8-10.3
			c0-8.6,4.8-12.7,14.3-12.3v-5.4c0-3.8-0.9-6.4-3.1-6.6c-2.4-0.2-3.8,0.8-4,2.7L73.9,54c1.9-1.5,4.2-2.1,6-2.1
			c6.8-0.3,12.3,4.1,12.3,12.5v6c2.7,0.3,4.9,1.5,6.7,3.4c1.9,2.1,3.1,4.9,3.6,8.4c0.6,4.4,2.3,6.6,5,6.6c2.3,0,3.5-1.2,3.5-3.6
			c0-2.1-2.6-5.2-7.8-9.1c-4.7-3.5-7.1-7.4-7.1-11.8c0-3.3,1-6,3-8c2-2,4.7-3,8-3c3.2,0,5.7,1,7.6,2.9c1.8,1.9,2.9,4.4,3.1,7.6
			l-7.1,1.7c-0.6-3.4-1.9-5.1-4-5.1c-2.2,0-3.3,1.2-3.3,3.5c0,1.7,1.8,4,5.3,6.8l2.2,1.8c2.4,2,4.1,3.8,5.1,5.3
			c1.4,2.1,2.2,4.4,2.2,6.9C118.4,88.1,117.4,90.8,115.3,92.8z M143.7,98.7c-0.8,3.2-2.5,5.5-4.9,7c-2.4,1.6-9.7,2.6-13.8-1.4
			c-1.9-1.9-2.9-4.3-2.9-7.4l0-18.5l0-35.5c-0.7,1.2-1.5,2.3-2.5,3.1c0.2-0.7,0.3-1.4,0.4-2.1c0.2-2.9-0.8-5.5-3.1-8
			c-0.5-0.6-1.1-1.1-1.7-1.5c1.9-0.5-2.1-4.1-4-6.8c-3.4-4.8-4.4-9.2-3.1-13.4c1-3.2,2.8-5.4,5.4-6.7s5.4-1.4,8.6-0.4
			c3,1,5.1,2.7,6.4,5.1c0.8,1.5,1.1,3.2,1.1,5.1V25V94c-0.2,3.4,0.7,5.4,2.7,5.9c2.3,0.6,3.8-1.4,4-2.7c0.1-0.3,0.1-0.5,0.1-0.8
			c1.5,0.7,3.4,1,5.6,1c0.7,0,1.3,0,1.9-0.1C143.9,97.8,143.8,98.2,143.7,98.7z M153.3,83.8c0,3.5-1,6.3-3.1,8.5
			c-2.1,2.3-4.9,3.4-8.3,3.4c-3.4,0-6.1-1-7.9-3.1c-1.9-2.1-2.8-5.5-2.8-10.3c0-8.6,4.8-12.7,14.3-12.3v-4.1c0-3.8-1.1-5.6-3.3-5.6
			c-1.2,0-2.5,0.2-3.9,0.7l-3-5.9c1.7-1.1,3.7-1.7,6.1-1.8c7.9-0.2,11.9,4,11.9,12.4V83.8z M161.2,67.8v23.1c-0.3,0.5-0.7,1-1.1,1.4
			c-1.7,1.8-3.9,2.9-6.5,3.3v-5.3c1-2,1.5-4.2,1.5-6.7V65.5c0-3-0.5-5.6-1.5-7.7v-4h2.1h5.5v3.8v1.7l0.5-0.9
			c1.9-3.4,4.4-5.1,7.5-5.1h0.8v8.5c-0.7-0.3-1.5-0.5-2.5-0.5c-2,0-3.5,0.5-4.5,1.5C161.7,63.8,161.2,65.5,161.2,67.8z M186.4,124.4
			v1.1c-0.1,2.2-0.4,4-1,5.5c-0.7,2.2-2,4-4,5.4c-2.1,1.6-4.4,2.4-6.8,2.4c-1.1,0-2.1-0.1-3.1-0.4c-2.7-0.8-4.9-2.7-6.4-5.6
			c-0.2-0.3-0.3-0.7-0.5-1c-0.6-1.3-0.9-2.8-0.9-4.3c-0.1-2.6,0.6-5.4,2.1-8.4c1.4-2.9,4.8-7.1,2.8-7.3c0.5-0.6,0.9-1.2,1.4-1.8
			c1.8-2.8,2.3-5.7,1.6-8.4c-0.2-0.7-0.4-1.4-0.7-2c1.8,1,3.3,2.6,4.4,4.8c1.2,2.2,1.6,4.6,1.4,7.1c-0.2,1.8-0.9,4.2-2.1,7.1
			l-1.1,2.7c-1.8,4.2-2.3,7-1.5,8.6c0.3,0.5,0.6,0.9,0.9,1.2c1.4,1.1,2.7,1,4.3-0.4c1.3-1.2,1.8-4,1.5-8.6l0.2-23.2
			c-9.6,0.4-14.3-3.7-14.3-12.3c0-4.8-1.3-15.9,2.8-20c1.9-2,4.5-3.1,7.9-3.1s6.2,1.1,8.3,3.4c1.1,1.2,1.9,2.6,2.4,4.2
			c-3.5,2.2-5.4,6.1-5.4,11.7c0,6.1,1.5,11.3,6,13.7L186.4,124.4L186.4,124.4z M227.2,92.8c-2.1,2-4.8,3-8.1,3
			c-3.4,0-6.2-1.2-8.4-3.5c-1.9-2.1-3.1-4.9-3.6-8.4c-0.4-3.1-1.4-5.1-2.8-6v5.9c0,3.5-1,6.3-3.1,8.5c-2.1,2.3-4.9,3.4-8.3,3.4
			c-3.4,0-6.1-1-7.9-3.1c-1.9-2.1-2.8-5.5-2.8-10.3c0-8.6,4.8-12.7,14.3-12.3V66c0-3.8-1.1-5.6-3.3-5.6c-1.2,0-2.5,0.2-3.9,0.7
			l-3-5.9c1.7-1.1,3.7-1.7,6.1-1.8c7.9-0.2,11.9,4,11.9,12.4v4.7c2.6,0.3,4.8,1.5,6.6,3.4c1.9,2.1,3.1,4.9,3.6,8.4
			c0.6,4.4,2.3,6.6,5,6.6c2.3,0,3.5-1.2,3.5-3.6c0-2.1-2.6-5.2-7.8-9.1c-4.7-3.5-7-7.4-7-11.8c0-3.3,1-6,3-8s4.7-3,8-3
			c3.2,0,5.7,1,7.6,2.9c1.8,1.9,2.9,4.4,3.1,7.6l-7.1,1.7c-0.6-3.4-1.9-5.1-4-5.1c-2.2,0-3.3,1.2-3.3,3.5c0,1.7,1.8,4,5.3,6.8
			l2.2,1.8c2.4,2,4.1,3.8,5.1,5.3c1.4,2.1,2.2,4.4,2.2,6.9C230.3,88.1,229.3,90.8,227.2,92.8z"/>
		<path class="st0" d="M119.7,13.8c-2.1-0.5-3.5,0.1-4.2,2.4c-0.5,1.7,0.4,4.4,3,8.2l1.6,2.4c0.9,1.4,1.6,2.7,2.2,3.9V25l0-8.4
			C121.8,15,120.9,14.1,119.7,13.8z"/>
		<path class="st0" d="M81.1,76.9c-2.2,0-3.3,1.6-3.3,4.7v1.1l0.1,1.2c0.1,3.2,1.1,4.7,3.3,4.7c2.2,0,3.3-1.6,3.3-4.7v-1l-0.1-1.3
			C84.3,78.4,83.2,76.9,81.1,76.9z"/>
		<path class="st0" d="M175.3,70.2c-2.1,0-3.2,1.6-3.3,4.7l-0.1,4.5v2.6v4.5c0,3.2,1.1,4.7,3.3,4.7c2.1,0,3.2-1.6,3.3-4.7l0.1-4.5
			v-2.6v-4.5C178.7,71.8,177.5,70.2,175.3,70.2z"/>
		<path class="st0" d="M142.2,76.9c-2.3,0-3.4,1.6-3.3,4.7v1.1l0.1,1.2c0.1,3.2,1.1,4.7,3.3,4.7c2.2,0,3.4-1.6,3.3-4.7v-1l-0.1-1.3
			C145.4,78.4,144.3,76.9,142.2,76.9z"/>
		<path class="st0" d="M193.1,76.9c-2.2,0-3.3,1.6-3.3,4.7v1.1l0.1,1.2c0.1,3.2,1.1,4.7,3.3,4.7c2.2,0,3.4-1.6,3.3-4.7v-1l-0.1-1.3
			C196.3,78.4,195.2,76.9,193.1,76.9z"/>
		<rect x="64.2" y="115.7" class="st0" width="2.9" height="9.4"/>
		<path class="st0" d="M62.8,122.7c-0.3,0-0.5-0.1-0.6-0.2c-0.1-0.1-0.2-0.3-0.1-0.5v-9.6h-3v10.3c0,0.7,0.2,1.3,0.6,1.8
			c0.4,0.5,1.1,0.8,2.1,0.8c0.3,0,0.7,0,1-0.1s0.6-0.1,0.9-0.2v-2.3l-0.5,0.1L62.8,122.7z"/>
		<path class="st0" d="M34.4,112.4h-5.8v12.7h3.2v-4.4h2.7c1,0,1.9-0.2,2.5-0.6c0.6-0.4,1.1-0.9,1.4-1.6c0.3-0.6,0.4-1.3,0.4-2
			c0-1.2-0.4-2.2-1.2-2.9C36.9,112.8,35.8,112.4,34.4,112.4z M35.2,117.8c-0.3,0.3-0.8,0.4-1.3,0.4h-2v-3.4h2c0.6,0,1,0.1,1.4,0.4
			c0.3,0.3,0.5,0.7,0.5,1.3C35.7,117.1,35.5,117.5,35.2,117.8z"/>
		<path class="st0" d="M55,115.5c-0.5,0-0.9,0.1-1.4,0.3s-0.9,0.5-1.2,1c0-4.4,0-4.4,0-4.4h-3v12.7h2.9l0.1-0.9
			c0.3,0.3,0.6,0.6,1,0.8s0.8,0.3,1.3,0.3c1.1,0,2-0.3,2.7-0.9c0.7-0.6,1.1-1.5,1.1-2.6V119c0-1.1-0.3-1.9-1-2.6
			C56.9,115.8,56,115.5,55,115.5z M55.5,121.6c0,0.5-0.2,0.9-0.5,1.2c-0.3,0.3-0.7,0.4-1,0.4c-0.4,0-0.8-0.1-1.1-0.4
			c-0.3-0.3-0.5-0.6-0.5-1.1v-2.2c0-0.6,0.2-1.1,0.5-1.3c0.3-0.3,0.7-0.4,1.1-0.4c0.4,0,0.8,0.1,1.1,0.4c0.3,0.3,0.4,0.6,0.5,1.1
			L55.5,121.6L55.5,121.6z"/>
		<path class="st0" d="M45.3,121c0,0.7-0.2,1.1-0.4,1.5c-0.3,0.3-0.6,0.5-1.1,0.5c-0.5,0-0.9-0.2-1.1-0.5s-0.3-0.8-0.3-1.3v-5.5h-3
			v6.5c0,1,0.3,1.8,0.9,2.3c0.6,0.5,1.3,0.8,2.2,0.8c0.6,0,1.1-0.1,1.6-0.4c0.5-0.3,0.9-0.6,1.3-1.1v1.3h2.9v-9.4h-3L45.3,121
			L45.3,121z"/>
		<rect x="64.2" y="112.3" class="st0" width="2.9" height="2.2"/>
		<path class="st0" d="M106.2,116.6c-0.3-0.3-0.6-0.6-1-0.8c-0.4-0.2-0.9-0.3-1.3-0.3c-1.1,0-1.9,0.3-2.6,0.9
			c-0.7,0.6-1.1,1.5-1.1,2.6v2.8c0,1.1,0.3,1.9,0.9,2.6c0.6,0.6,1.5,0.9,2.5,0.9c0.5,0,1-0.1,1.4-0.4c0.5-0.2,0.9-0.6,1.3-1v1.1h2.9
			v-12.7h-2.9L106.2,116.6z M106.2,121.4c0,0.6-0.2,1-0.5,1.3c-0.3,0.2-0.7,0.4-1.1,0.4c-0.4,0-0.8-0.1-1.1-0.4
			c-0.3-0.3-0.4-0.6-0.4-1.1v-2.2c0-0.6,0.2-1,0.5-1.3c0.3-0.3,0.7-0.4,1-0.4c0.4,0,0.8,0.1,1.1,0.4c0.3,0.3,0.5,0.6,0.5,1.2
			C106.2,119.2,106.2,121.4,106.2,121.4z"/>
		<path class="st0" d="M116.5,115.9c-0.7-0.3-1.4-0.4-2.1-0.4c-0.8,0-1.5,0.2-2.2,0.4c-0.7,0.3-1.2,0.8-1.7,1.4s-0.7,1.4-0.7,2.3
			v1.9c0,0.9,0.3,1.6,0.7,2.2c0.4,0.6,1,1,1.8,1.3c0.7,0.3,1.4,0.4,2.2,0.4c0.9,0,1.6-0.1,2.2-0.2c0.6-0.2,1.1-0.3,1.5-0.6l-0.9-2.1
			c-0.2,0.1-0.6,0.2-1,0.4c-0.4,0.2-0.9,0.2-1.3,0.2c-0.3,0-0.6-0.1-1-0.2s-0.6-0.3-0.8-0.5c-0.2-0.2-0.3-0.5-0.3-1h5.8V119
			c0-0.8-0.2-1.4-0.6-1.9C117.7,116.6,117.2,116.2,116.5,115.9z M115.9,119.6h-3v-0.3c0-0.5,0.2-0.9,0.5-1.2
			c0.3-0.3,0.7-0.4,1.1-0.4c0.4,0,0.7,0.1,1,0.3c0.3,0.2,0.4,0.6,0.4,1.1C115.9,119.2,115.9,119.6,115.9,119.6z"/>
		<path class="st0" d="M99.5,123.9l0-0.8v-4.3c0-0.8-0.2-1.4-0.6-1.9c-0.4-0.5-0.9-0.8-1.6-1c-0.6-0.2-1.3-0.3-2.1-0.3
			s-1.4,0.1-2,0.3s-1.1,0.5-1.5,1c-0.4,0.4-0.6,1-0.6,1.7v0.3h2.6v-0.3c0-0.3,0.1-0.5,0.3-0.7c0.2-0.2,0.6-0.3,1.1-0.3
			c0.5,0,0.8,0.1,1.1,0.3s0.4,0.5,0.4,0.9v0.7h-1.7c-0.7,0-1.3,0.1-1.9,0.3c-0.6,0.2-1.2,0.5-1.6,1c-0.4,0.4-0.6,1-0.7,1.8
			c0,0.9,0.3,1.6,0.9,2s1.3,0.7,2.2,0.7c0.5,0,1-0.1,1.5-0.2c0.5-0.2,1-0.5,1.4-1l0,0.3l0,0.5l0,0.3h2.8c0-0.1-0.1-0.2-0.1-0.5
			L99.5,123.9z M96.5,121.7c0,0.4-0.2,0.8-0.4,1.1c-0.3,0.3-0.6,0.4-1.2,0.4c-0.4,0-0.8-0.1-1-0.3s-0.3-0.4-0.3-0.7
			c0-0.4,0.2-0.7,0.4-0.8s0.6-0.2,1.1-0.2h1.4L96.5,121.7z"/>
		<path class="st0" d="M74.5,115.9c-0.7-0.3-1.3-0.4-2.1-0.4s-1.5,0.2-2.2,0.4c-0.7,0.3-1.2,0.8-1.7,1.4c-0.4,0.6-0.7,1.4-0.7,2.3
			v1.9c0,0.9,0.2,1.6,0.7,2.2c0.4,0.6,1,1,1.7,1.3s1.4,0.4,2.2,0.4c0.8,0,1.4-0.1,2.1-0.4c0.7-0.3,1.2-0.6,1.6-1.1
			c0.4-0.5,0.6-1.2,0.6-1.9v-0.4l-2.9,0.3c0,0.5-0.2,0.8-0.4,1.1s-0.6,0.3-1,0.3c-0.5,0-0.9-0.1-1.1-0.4c-0.3-0.3-0.4-0.6-0.4-1.1
			v-2.3c0-0.5,0.2-0.9,0.5-1.2c0.3-0.2,0.7-0.4,1.1-0.3c0.4,0,0.7,0.1,1,0.3c0.3,0.2,0.4,0.6,0.4,1.1v0.3h2.9v-0.4
			c0-0.8-0.2-1.4-0.6-1.9C75.7,116.6,75.2,116.2,74.5,115.9z"/>
		<path class="st0" d="M87,116.6c-0.3-0.3-0.6-0.6-1-0.8c-0.4-0.2-0.9-0.3-1.3-0.3c-1.1,0-1.9,0.3-2.6,0.9c-0.7,0.6-1.1,1.5-1.1,2.6
			v2.8c0,1.1,0.3,1.9,0.9,2.6c0.6,0.6,1.5,0.9,2.5,0.9c0.5,0,0.9-0.1,1.4-0.4c0.5-0.2,0.9-0.6,1.3-1v1.1H90v-12.7h-2.9L87,116.6z
			 M87.1,121.4c0,0.6-0.2,1-0.5,1.3c-0.3,0.2-0.7,0.4-1.1,0.4c-0.4,0-0.8-0.1-1.1-0.4c-0.3-0.3-0.4-0.6-0.5-1.1v-2.2
			c0-0.6,0.2-1,0.5-1.3c0.3-0.3,0.7-0.4,1-0.4c0.4,0,0.8,0.1,1.1,0.4c0.3,0.3,0.5,0.6,0.5,1.2V121.4z"/>
		<rect x="77.3" y="115.7" class="st0" width="2.9" height="9.4"/>
		<rect x="77.3" y="112.3" class="st0" width="2.9" height="2.2"/>
	</g>
</g>
</svg>
