<svg id="Capa_1" enable-background="new 0 0 512 512" height="512" viewBox="0 0 512 512" width="512" xmlns="http://www.w3.org/2000/svg"><g><path d="m482 459.5h-60c-8.271 0-15-6.729-15-15v-7.5c0-12.407 10.093-22.5 22.5-22.5h22.5v-163h-51.525v130.5c0 9.649-7.851 17.5-17.5 17.5h-261.475c-9.649 0-17.5-7.851-17.5-17.5v-130.5h-44v163h22.5c12.407 0 22.5 10.093 22.5 22.5v7.5c0 8.271-6.729 15-15 15h-60c-8.271 0-15-6.729-15-15v-7.5c0-12.407 10.093-22.5 22.5-22.5h7.5v-163h-22.5c-12.407 0-22.5-10.093-22.5-22.5v-139c0-20.678 16.822-37.5 37.5-37.5h325.475c4.142 0 7.5 3.358 7.5 7.5s-3.358 7.5-7.5 7.5h-244.429c-1.898 15.071-9.422 23.659-16.166 31.356-6.263 7.149-11.782 13.447-13.088 25.144h147.945c4.142 0 7.5 3.358 7.5 7.5s-3.358 7.5-7.5 7.5h-88.237v22.5c0 4.142-3.358 7.5-7.5 7.5s-7.5-3.358-7.5-7.5v-22.5h-15v243c0 1.378 1.122 2.5 2.5 2.5h261.475c1.378 0 2.5-1.122 2.5-2.5v-243h-15v22.5c0 4.142-3.358 7.5-7.5 7.5s-7.5-3.358-7.5-7.5v-22.5h-88.238c-4.142 0-7.5-3.358-7.5-7.5s3.358-7.5 7.5-7.5h147.946c-1.307-11.696-6.825-17.994-13.088-25.144-7.79-8.892-16.62-18.969-16.62-38.856 0-4.142 3.358-7.5 7.5-7.5h81.525c20.678 0 37.5 16.822 37.5 37.5v139c0 12.407-10.093 22.5-22.5 22.5h-22.5v163h7.5c12.407 0 22.5 10.093 22.5 22.5v7.5c0 8.271-6.729 15-15 15zm-52.5-30c-4.136 0-7.5 3.364-7.5 7.5v7.5h60v-7.5c0-4.136-3.364-7.5-7.5-7.5zm-392 0c-4.136 0-7.5 3.364-7.5 7.5v7.5h60v-7.5c0-4.136-3.364-7.5-7.5-7.5zm392.975-193h59.025c4.136 0 7.5-3.364 7.5-7.5v-90h-66.525zm-30 0h15v-70h-15zm-311.475 0h15v-70h-15zm-74-97.5v90c0 4.136 3.364 7.5 7.5 7.5h51.5v-97.5zm385.475 12.5h15v-12.5h-15zm-311.475 0h15v-12.5h-15zm341.255-27.5h66.745v-34c0-12.407-10.093-22.5-22.5-22.5h-73.41c1.656 9.338 6.48 14.844 12.287 21.472 7.282 8.312 15.447 17.632 16.878 35.028zm-415.255 0h59.22c1.431-17.396 9.596-26.716 16.878-35.028 5.807-6.628 10.631-12.133 12.287-21.472h-65.885c-12.407 0-22.5 10.093-22.5 22.5zm340.475 245.5h-22.5c-4.142 0-7.5-3.358-7.5-7.5s3.358-7.5 7.5-7.5h22.5v-22.5c0-4.142 3.358-7.5 7.5-7.5s7.5 3.358 7.5 7.5v22.5c0 8.271-6.729 15-15 15zm-183.975 0h-22.5c-8.271 0-15-6.729-15-15v-22.5c0-4.142 3.358-7.5 7.5-7.5s7.5 3.358 7.5 7.5v22.5h22.5c4.142 0 7.5 3.358 7.5 7.5s-3.358 7.5-7.5 7.5zm302.5-259.5c-4.411 0-8-3.589-8-8s3.589-8 8-8 8 3.589 8 8-3.589 8-8 8zm-30 0c-4.411 0-8-3.589-8-8s3.589-8 8-8 8 3.589 8 8-3.589 8-8 8z"/></g></svg>