<?xml version="1.0" encoding="utf-8"?>
<!-- Generator: Adobe Illustrator 25.0.1, SVG Export Plug-In . SVG Version: 6.00 Build 0)  -->
<svg version="1.1" xmlns="http://www.w3.org/2000/svg" xmlns:xlink="http://www.w3.org/1999/xlink" x="0px" y="0px"
	 viewBox="0 0 500 500" style="enable-background:new 0 0 500 500;" xml:space="preserve">
<style type="text/css">
	.st0{fill-rule:evenodd;clip-rule:evenodd;fill:#3C5A99;}
	.st1{fill:#3C5A99;}
</style>
<g id="Background">
</g>
<g id="Objects">
	<path id="XMLID_2127_" class="st0" d="M453.23,257.1c-0.3-11.69-9.93-21.07-21.78-21.07c-11.71,0-21.26,9.17-21.77,20.68
		c-0.01,0.32-0.02,0.63-0.02,0.95c0,4.09,1.14,7.91,3.12,11.17l-3.93,11.6l12.07-3.84c3.12,1.71,6.71,2.69,10.53,2.69
		c12.04,0,21.79-9.68,21.79-21.63C453.24,257.47,453.24,257.28,453.23,257.1z M431.45,275.83c-3.72,0-7.18-1.1-10.08-3.01
		l-7.04,2.24l2.28-6.75c-2.19-3-3.49-6.68-3.49-10.66c0-0.59,0.03-1.18,0.09-1.76c0.9-9.2,8.73-16.41,18.23-16.41
		c9.62,0,17.53,7.4,18.26,16.76c0.04,0.47,0.06,0.94,0.06,1.42C449.77,267.68,441.55,275.83,431.45,275.83z"/>
	<path id="XMLID_2126_" class="st0" d="M441.44,262.02c-0.54-0.26-3.16-1.55-3.65-1.72c-0.49-0.18-0.85-0.27-1.2,0.27
		c-0.36,0.53-1.39,1.72-1.69,2.07c-0.32,0.36-0.62,0.4-1.16,0.13c-0.53-0.27-2.25-0.82-4.29-2.63c-1.58-1.4-2.66-3.13-2.97-3.66
		c-0.31-0.53-0.03-0.82,0.23-1.08c0.24-0.24,0.53-0.62,0.81-0.93c0.07-0.09,0.13-0.17,0.19-0.26c0.12-0.19,0.21-0.38,0.34-0.63
		c0.18-0.36,0.09-0.66-0.04-0.93c-0.13-0.27-1.2-2.88-1.65-3.94c-0.44-1.06-0.89-0.88-1.2-0.88c-0.31,0-0.66-0.05-1.02-0.05
		c-0.36,0-0.94,0.13-1.43,0.66c-0.49,0.53-1.87,1.82-1.87,4.43c0,0.61,0.11,1.22,0.28,1.81c0.54,1.87,1.7,3.41,1.91,3.67
		c0.26,0.35,3.69,5.88,9.12,8.01c5.44,2.11,5.44,1.41,6.42,1.32c0.98-0.08,3.16-1.28,3.6-2.52c0.45-1.23,0.45-2.3,0.32-2.52
		C442.32,262.41,441.97,262.28,441.44,262.02z"/>
	<g id="XMLID_2097_">
		<rect id="XMLID_2100_" x="234.29" y="249.2" class="st1" width="8.37" height="27.05"/>
		<path id="XMLID_2098_" class="st1" d="M238.44,245.66c2.74,0,4.95-2.24,4.95-4.99c0-2.76-2.22-4.99-4.95-4.99
			c-2.74,0-4.95,2.23-4.95,4.99C233.49,243.42,235.71,245.66,238.44,245.66z"/>
	</g>
	<path id="XMLID_2096_" class="st1" d="M256.05,262.05c0-3.8,1.75-6.07,5.1-6.07c3.08,0,4.56,2.17,4.56,6.07c0,3.9,0,14.2,0,14.2
		h8.33c0,0,0-9.88,0-17.13c0-7.25-4.11-10.75-9.84-10.75c-5.74,0-8.15,4.47-8.15,4.47v-3.64h-8.03v27.05h8.03
		C256.05,276.25,256.05,266.22,256.05,262.05z"/>
	<path id="XMLID_2081_" class="st1" d="M68.07,282.68h9.85v-24.66h6.87l0.73-8.26h-7.6c0,0,0-3.08,0-4.7c0-1.95,0.39-2.72,2.27-2.72
		c1.51,0,5.33,0,5.33,0v-8.57c0,0-5.62,0-6.82,0c-7.33,0-10.63,3.23-10.63,9.41c0,5.38,0,6.58,0,6.58h-5.12v8.36h5.12V282.68z"/>
	<path id="XMLID_2076_" class="st1" d="M163.44,240.03c5.92,0,6.62,0.02,8.96,0.13c2.16,0.1,3.34,0.46,4.12,0.76
		c1.04,0.4,1.77,0.88,2.55,1.66c0.78,0.78,1.26,1.52,1.66,2.55c0.3,0.78,0.67,1.96,0.76,4.12c0.11,2.34,0.13,3.04,0.13,8.96
		c0,5.92-0.02,6.62-0.13,8.96c-0.1,2.16-0.46,3.34-0.76,4.12c-0.4,1.04-0.88,1.77-1.66,2.55c-0.78,0.78-1.52,1.26-2.55,1.66
		c-0.78,0.3-1.96,0.67-4.12,0.76c-2.34,0.11-3.04,0.13-8.96,0.13s-6.63-0.02-8.96-0.13c-2.16-0.1-3.34-0.46-4.12-0.76
		c-1.04-0.4-1.77-0.88-2.55-1.66c-0.78-0.78-1.26-1.52-1.66-2.55c-0.3-0.78-0.67-1.96-0.76-4.12c-0.11-2.34-0.13-3.04-0.13-8.96
		c0-5.92,0.02-6.63,0.13-8.96c0.1-2.16,0.46-3.34,0.76-4.12c0.4-1.04,0.88-1.77,1.66-2.55c0.78-0.78,1.52-1.26,2.55-1.66
		c0.78-0.3,1.96-0.67,4.12-0.76C156.81,240.06,157.51,240.03,163.44,240.03 M163.44,236.04c-6.02,0-6.78,0.03-9.15,0.13
		c-2.36,0.11-3.97,0.48-5.38,1.03c-1.46,0.57-2.7,1.33-3.93,2.56c-1.23,1.23-1.99,2.47-2.56,3.93c-0.55,1.41-0.92,3.02-1.03,5.38
		c-0.11,2.37-0.13,3.12-0.13,9.15c0,6.02,0.03,6.78,0.13,9.15c0.11,2.36,0.48,3.97,1.03,5.38c0.57,1.46,1.32,2.7,2.56,3.93
		c1.23,1.23,2.47,1.99,3.93,2.56c1.41,0.55,3.02,0.92,5.38,1.03c2.37,0.11,3.12,0.13,9.15,0.13c6.02,0,6.78-0.03,9.15-0.13
		c2.36-0.11,3.97-0.48,5.38-1.03c1.46-0.57,2.7-1.33,3.93-2.56c1.23-1.23,1.99-2.47,2.56-3.93c0.55-1.41,0.92-3.02,1.03-5.38
		c0.11-2.37,0.13-3.12,0.13-9.15c0-6.02-0.03-6.78-0.13-9.15c-0.11-2.36-0.48-3.97-1.03-5.38c-0.57-1.46-1.33-2.7-2.56-3.93
		s-2.47-1.99-3.93-2.56c-1.41-0.55-3.02-0.92-5.38-1.03C170.22,236.06,169.46,236.04,163.44,236.04"/>
	<path id="XMLID_2073_" class="st1" d="M163.44,246.83c-6.29,0-11.39,5.1-11.39,11.39c0,6.29,5.1,11.39,11.39,11.39
		c6.29,0,11.39-5.1,11.39-11.39C174.83,251.93,169.73,246.83,163.44,246.83 M163.44,265.62c-4.08,0-7.39-3.31-7.39-7.39
		c0-4.08,3.31-7.39,7.39-7.39c4.08,0,7.39,3.31,7.39,7.39C170.83,262.3,167.52,265.62,163.44,265.62"/>
	<path id="XMLID_2025_" class="st1" d="M177.94,246.38c0,1.47-1.19,2.66-2.66,2.66c-1.47,0-2.66-1.19-2.66-2.66
		c0-1.47,1.19-2.66,2.66-2.66C176.75,243.72,177.94,244.91,177.94,246.38"/>
	<path id="XMLID_2003_" class="st1" d="M334.77,275.8c1.44-0.3,2.69-0.85,3.75-1.67c0.94-0.7,1.72-1.58,2.35-2.61
		c0.98-1.56,1.48-3.33,1.48-5.29c0-1.9-0.43-3.53-1.29-4.86c-0.86-1.34-2.14-2.31-3.83-2.93c1.11-0.57,1.96-1.2,2.53-1.89
		c1.02-1.23,1.54-2.86,1.54-4.89c0-1.97-0.51-3.65-1.52-5.07c-1.69-2.29-4.55-3.47-8.6-3.53h-16.04v33.18h14.95
		C331.76,276.25,333.33,276.1,334.77,275.8z M321.75,248.83h7.22c1.59,0,2.9,0.17,3.92,0.52c1.19,0.49,1.78,1.51,1.78,3.06
		c0,1.4-0.45,2.37-1.35,2.92c-0.9,0.55-2.07,0.82-3.51,0.82h-8.07V248.83z M321.75,270.49v-8.85h8.17c1.43,0.01,2.53,0.2,3.32,0.56
		c1.41,0.64,2.11,1.83,2.11,3.56c0,2.04-0.73,3.42-2.18,4.14c-0.8,0.39-1.92,0.58-3.36,0.58H321.75z"/>
	<g id="XMLID_1998_">
		<path id="XMLID_2000_" class="st1" d="M347.97,273.23c2.5,2.01,5.38,3.02,8.64,3.02c3.96,0,7.04-1.19,9.23-3.58
			c1.42-1.5,2.21-2.98,2.38-4.43h-6.55c-0.38,0.72-0.82,1.28-1.32,1.69c-0.91,0.75-2.1,1.13-3.56,1.13c-1.38,0-2.56-0.31-3.54-0.92
			c-1.61-0.99-2.47-2.72-2.57-5.18h17.87c0.03-2.12-0.04-3.74-0.21-4.87c-0.3-1.92-0.95-3.62-1.96-5.07
			c-1.11-1.65-2.53-2.86-4.24-3.63c-1.71-0.77-3.63-1.15-5.77-1.15c-3.59,0-6.52,1.13-8.77,3.4c-2.25,2.27-3.38,5.53-3.38,9.78
			C344.22,267.95,345.47,271.22,347.97,273.23z M352.55,256.92c0.91-0.93,2.18-1.4,3.83-1.4c1.51,0,2.78,0.44,3.81,1.32
			c1.02,0.88,1.59,2.18,1.71,3.88h-11.05C351.07,259.12,351.64,257.86,352.55,256.92z"/>
		<rect id="XMLID_1999_" x="348.75" y="244.14" class="st1" width="14.42" height="3.35"/>
	</g>
</g>
</svg>
