<?xml version="1.0" encoding="utf-8"?>
<!-- Generator: Adobe Illustrator 24.0.2, SVG Export Plug-In . SVG Version: 6.00 Build 0)  -->
<svg version="1.1" id="Layer_1" xmlns="http://www.w3.org/2000/svg" xmlns:xlink="http://www.w3.org/1999/xlink" x="0px" y="0px"
	 viewBox="0 0 425.8 441.6" style="enable-background:new 0 0 425.8 441.6;" xml:space="preserve">
<style type="text/css">
	.st0{fill:#FFFFFF;}
	.st1{fill:url(#shape_3_1_);}
	.st2{fill:url(#SVGID_1_);}
	.st3{fill-rule:evenodd;clip-rule:evenodd;fill:#FFFFFF;}
</style>
<g id="WhatsApp_Logo">
	<g>
		<g id="shape_4">
			
				<image style="overflow:visible;opacity:6.000000e-02;enable-background:new    ;" width="496" height="497" xlink:href="FEBB37B8.png"  transform="matrix(1 0 0 1 -36.1272 -22.5023)">
			</image>
			<g>
				<g>
					<path class="st0" d="M1.8,430.9l29.6-108C13.1,291.2,3.5,255.3,3.5,218.6c0-115,93.6-208.5,208.6-208.5
						c55.8,0,108.1,21.7,147.5,61.2c39.4,39.4,61,91.8,61,147.5c0,114.9-93.6,208.5-208.6,208.5c0,0,0,0,0,0H212
						c-34.9,0-69.2-8.8-99.7-25.4L1.8,430.9z M117.4,364.1l6.3,3.8c26.6,15.8,57.1,24.1,88.2,24.2h0.1
						c95.5,0,173.3-77.7,173.4-173.3c0-46.3-18-89.9-50.7-122.6s-76.3-50.8-122.6-50.8c-95.6,0-173.4,77.7-173.4,173.3
						c0,32.7,9.2,64.6,26.5,92.2l4.1,6.6l-17.5,64L117.4,364.1z"/>
				</g>
			</g>
		</g>
		
			<linearGradient id="shape_3_1_" gradientUnits="userSpaceOnUse" x1="211.185" y1="16.52" x2="211.185" y2="422.71" gradientTransform="matrix(1 0 0 -1 0 440.1102)">
			<stop  offset="0" style="stop-color:#20B038"/>
			<stop  offset="1" style="stop-color:#60D66A"/>
		</linearGradient>
		<path id="shape_3" class="st1" d="M9,423.6l28.6-104.3C20,288.8,10.7,254.1,10.7,218.7c0.1-111,90.4-201.3,201.3-201.3
			c53.9,0,104.4,21,142.4,59c38,38,58.9,88.6,58.9,142.4c0,111-90.4,201.3-201.3,201.3c0,0,0,0,0,0h-0.1c-33.7,0-66.8-8.5-96.2-24.5
			L9,423.6z"/>
		<g id="shape_2">
			<g>
				<g>
					
						<linearGradient id="SVGID_1_" gradientUnits="userSpaceOnUse" x1="211.19" y1="9.24" x2="211.19" y2="430" gradientTransform="matrix(1 0 0 -1 0 440.1102)">
						<stop  offset="0" style="stop-color:#F9F9F9"/>
						<stop  offset="1" style="stop-color:#FFFFFF"/>
					</linearGradient>
					<path class="st2" d="M1.8,430.9l29.6-108C13.1,291.2,3.5,255.3,3.5,218.6c0-115,93.6-208.5,208.6-208.5
						c55.8,0,108.1,21.7,147.5,61.2c39.4,39.4,61,91.8,61,147.5c0,114.9-93.6,208.5-208.6,208.5c0,0,0,0,0,0H212
						c-34.9,0-69.2-8.8-99.7-25.4L1.8,430.9z M117.4,364.1l6.3,3.8c26.6,15.8,57.1,24.1,88.2,24.2h0.1
						c95.5,0,173.3-77.7,173.4-173.3c0-46.3-18-89.9-50.7-122.6s-76.3-50.8-122.6-50.8c-95.6,0-173.4,77.7-173.4,173.3
						c0,32.7,9.2,64.6,26.5,92.2l4.1,6.6l-17.5,64L117.4,364.1z"/>
				</g>
			</g>
		</g>
		<g id="shape_1">
			<g>
				<path class="st3" d="M159.9,131.4c-3.9-8.7-8-8.9-11.7-9c-3-0.1-6.5-0.1-10-0.1c-3.5,0-9.1,1.3-13.9,6.5
					c-4.8,5.2-18.2,17.8-18.2,43.5s18.7,50.4,21.3,53.9c2.6,3.5,36.1,57.8,89,78.7c44,17.4,53,13.9,62.5,13s30.8-12.6,35.2-24.8
					c4.3-12.2,4.3-22.6,3-24.8c-1.3-2.2-4.8-3.5-10-6.1c-5.2-2.6-30.8-15.2-35.6-16.9c-4.8-1.7-8.3-2.6-11.7,2.6
					c-3.5,5.2-13.5,16.9-16.5,20.4c-3,3.5-6.1,3.9-11.3,1.3c-5.2-2.6-22-8.1-41.9-25.9c-15.5-13.8-25.9-30.9-29-36.1
					c-3-5.2-0.3-8,2.3-10.6c2.3-2.3,5.2-6.1,7.8-9.1c2.6-3,3.5-5.2,5.2-8.7s0.9-6.5-0.4-9.1C174.7,167.5,164.6,141.7,159.9,131.4z"
					/>
			</g>
		</g>
	</g>
</g>
</svg>
