<?xml version="1.0" encoding="utf-8"?>
<!-- Generator: Adobe Illustrator 24.0.2, SVG Export Plug-In . SVG Version: 6.00 Build 0)  -->
<svg version="1.1" id="Layer_1" xmlns="http://www.w3.org/2000/svg" xmlns:xlink="http://www.w3.org/1999/xlink" x="0px" y="0px"
	 viewBox="0 0 354.3 324.6" style="enable-background:new 0 0 354.3 324.6;" xml:space="preserve">
<style type="text/css">
	.st0{fill:#FFFFFF;}
</style>
<g>
	<path class="st0" d="M252.9,324.6c-1.8,0-3.6,0-5.4,0c-0.9-3.1-2.8-6.2-2.6-9.2c0.7-7.6,2.3-15,3.7-23.3c-6.4-0.9-12.8-2-19.2-2.8
		c-9-1.2-10-2.2-9.9-10.9c0.1-6.5,0.1-13.1,0.2-19.6c0.1-4.5-1.5-7.2-6.5-7.5c-4.5-0.3-8.9-1.2-13.4-1.8c-22.1-3-44.1-5.9-66.2-9
		c-5.8-0.8-8.4,1.2-8.3,7.2c0.1,6.3-0.3,12.6-0.6,18.9c-0.3,7.7-1.8,9.1-9.4,8.1c-18.3-2.3-36.6-4.9-54.9-7c-3.1-0.3-6.7,0.5-9.4,2
		c-12,6.7-23.7,13.9-35.6,20.6c-2.2,1.3-6.1,2.1-7.9,1c-1.7-1.1-2.5-5-2.3-7.5c0.7-7.5,2.2-15,3.3-22C5.3,260,2.7,258.5,0,257
		C0,171.3,0,85.7,0,0c5.9,0,11.7,0,17.6,0c1.7,0.4,3.4,1,5.2,1.1c59.5,3.8,119.1,7.5,178.6,11.2c48.3,3,96.6,6.1,144.9,9.3
		c2.7,0.2,5.4,1.8,8,2.7c0,92.9,0,185.7,0,278.6c-3.8,0.8-7.6,2.5-11.3,2.1c-14.3-1.6-28.5-3.9-42.8-5.9c-1.9-0.3-4.3-0.4-5.9,0.5
		C280.5,307.8,266.7,316.2,252.9,324.6z M251.9,280.9c2.7-5.7,5.1-11.3,8-16.6c6.5-11.9,15.7-20.8,29-24.7
		c21.8-6.5,41.9,7.3,43.9,30.1c0.4,4.8-0.8,8.2-5.4,10.5c-4.8,2.4-9.3,5.4-15.6,9.2c11.6,1.6,21.1,2.9,30.8,4.2
		c0-87.4,0-174.1,0-261C232,25.6,122,18.7,11.6,11.7c0,79.5,0,157.9,0,236.4c2-1.8,2.8-4,3.7-6.2c4.9-11.3,11.1-21.7,21.6-28.7
		c23.9-15.9,50.1-5.5,55.7,21.8c1.3,6.3,0.3,10.9-6.1,13.8c-4.6,2.2-8.8,5.2-14.7,8.8c15.2,2,28.2,3.6,42.2,5.4
		c0-6.8-0.4-12.7,0.1-18.5c0.8-10.4,8.8-17,18.8-15.7c27,3.6,54,7.2,81,11c12.6,1.7,17.2,7.2,17.2,19.8c0,6,0,12,0,18.3
		C238.5,279.1,245.1,280,251.9,280.9z M54.7,254.3c8.8-5.1,16.6-9.6,24.2-14.2c1.1-0.7,2.2-2.3,2.2-3.6
		c0.4-12.2-14.8-22.2-26.4-17.5C54.7,230.2,54.7,241.6,54.7,254.3z M296.5,285c8-4.7,15.4-8.9,22.6-13.3c0.9-0.6,1.7-2.1,1.7-3.2
		c0.3-10.9-12.8-21-24.4-18.4C296.5,261.3,296.5,272.7,296.5,285z M284.3,285.6c0-10.9,0-20.9,0-31.8c-10.8,7.4-16,17.3-20.2,28.8
		C270.9,283.6,277.3,284.5,284.3,285.6z M42.9,224.1c-0.8-0.4-1.7-0.8-2.5-1.3c-5.7,9-11.5,18-17.9,28.2c8.2,1.1,14.1,1.8,20.4,2.7
		C42.9,243.4,42.9,233.8,42.9,224.1z M257.4,308c7-4.1,12.7-7.5,20.1-11.9c-7-1-11.9-1.6-17.3-2.3
		C259.3,298.5,258.5,302.5,257.4,308z M20.5,262.3c-1,4.4-1.9,8.4-3.1,13.8c6.8-4,12.4-7.3,19.8-11.6
		C30.5,263.6,25.8,263,20.5,262.3z"/>
</g>
</svg>
