<?xml version="1.0" encoding="utf-8"?>
<!-- Generator: Adobe Illustrator 24.0.2, SVG Export Plug-In . SVG Version: 6.00 Build 0)  -->
<svg version="1.1" id="Layer_1" xmlns="http://www.w3.org/2000/svg" xmlns:xlink="http://www.w3.org/1999/xlink" x="0px" y="0px"
	 viewBox="0 0 354.3 230.6" style="enable-background:new 0 0 354.3 230.6;" xml:space="preserve">
<style type="text/css">
	.st0{fill:#1B4CA1;}
</style>
<g>
	<g>
		<path class="st0" d="M302,230.6c-7.4,0-14.8,0-21.9,0c-9.5,0-13.2-3.8-13.3-13.4c-0.1-7.3-0.1-14.8-0.1-22c0-2.5,0-4.9,0-7.4
			c-8.2-0.3-15.9-0.3-23.4,0c0,0.9,0,1.9,0,2.9c-0.5,8.2-5.8,9.9-10.2,9.9c-42.6,0.1-78.2,0.1-112,0c-2.3,0-5.2-0.3-7.3-2.4
			c-2.2-2.2-2.8-5.6-2.9-10.4c-7.5-0.3-15.2-0.4-23.4,0c0,2.4,0,4.9,0,7.3c0,7.2,0,14.3,0,21.5c-0.1,10.3-3.7,13.9-13.8,13.9h-7.3
			c-10.9,0-21.7,0-32.6,0c-8.9,0-12.3-3.5-12.4-12.4c0-7.6,0-15.2,0-22.8v-7.6h-1.9c-3.1-0.1-6.2-0.1-9.3-0.2
			c-7.2-0.2-10-3.1-10.1-10.1c0-2.8,0-5.5,0-8.3v-3.5C0,154.7,1,153,10.7,151.8c0-4.4,0-8.9,0-13.3c0-11.8,0-24,0-36
			C10.8,91.3,18,82.9,29,81c2.3-1,4.7-0.9,6.8-0.8c0.7,0,1.4,0.1,2.1,0c0.9,0,1.6,0,2.2-0.1c0.1,0,0.3-0.1,0.4-0.1
			c-0.1-0.3-0.3-0.6-0.4-1c-1.6,0-3.2,0-4.8,0c-4.5,0-9.1,0-13.6-0.1c-6.8-0.2-12.3-2.7-15.8-7.3c-4-5.2-5.2-12.9-3.3-21.1
			c1-4.3,4.8-7,9.9-7c2.3,0,4.6,0,6.9,0c6.7,0,13.6-0.1,20.4,0s10.8,4,11.2,11c0.2,3.9,0.3,7.7,0.4,11.5c0,1.4,0.1,2.7,0.1,4.1
			c0.3,0.3,0.5,0.6,0.7,0.8c1.4-4.9,2.9-9.7,4.3-14.6c4.1-14.3,8.5-29.3,13-44C71.9,4.5,78,0,86.4,0c62,0,123.1,0,181.7,0
			c8.3,0,14.4,4.5,16.8,12.3c4.4,14.4,8.8,29.2,13,43.4c1.5,5,3,10.1,4.4,15.1c0.2-0.2,0.3-0.5,0.5-0.7l0.1-4.1
			c0.1-3.4,0.2-6.9,0.3-10.3c0.3-8.3,4.1-12.1,12.3-12.2c9-0.1,17.3-0.1,25.1,0c7.6,0.1,11.4,3.9,11.7,11.6c0.3,8.2-1.4,14-5.2,18
			c-3.8,3.9-9.6,5.8-17.9,5.8c-3.8,0-7.5,0-11.3,0.1H314c-0.2,0.4-0.4,0.8-0.5,1.1c0.7,0,1.6,0.1,2.5,0.1h0.2c0.7,0,1.4,0,2.1,0
			c2.1-0.1,4.4-0.2,6.8,0.8c11.1,1.9,18.3,10.3,18.3,21.5c0.1,12,0,24.2,0,35.9c0,4.4,0,8.9,0,13.3c9.8,1.1,10.7,2.9,10.7,13.9v3.5
			c0,2.7,0,5.5,0,8.2c-0.1,7.1-3,9.9-10.1,10.1c-3.1,0.1-6.1,0.1-9.2,0.2h-2v7.8c0,7.7,0,15.4,0,23.1c0,8.1-3.7,11.8-11.8,11.8
			C314.8,230.6,308.4,230.6,302,230.6z M255.1,183.3c4.5,0,9.2,0.1,14,0.3l2,0.1v2c0,3.2,0,6.3,0,9.4c0,7.2,0,14.6,0.1,21.9
			c0.1,7.3,1.8,9.1,9,9.2c13.2,0,27.2,0.1,41,0c5.8,0,7.5-1.7,7.6-7.6c0-7.7,0-15.4,0-23.1v-12l6.2-0.1c3.1-0.1,6.1-0.1,9.2-0.2
			c4.9-0.1,5.9-1.1,6-5.9c0-2.7,0-5.4,0-8.1v-3.5c0-4.5,0-7.3-0.9-8.2c-0.8-0.9-3.5-1.3-7.9-1.7l-1.9-0.2v-1.9c0-5.1,0-10.2,0-15.3
			c0-11.8,0-23.9,0-35.9c-0.1-9.2-5.8-15.9-15-17.3h-0.3l-0.3-0.1c-1.5-0.7-3.2-0.6-5.1-0.5c-0.8,0-1.6,0.1-2.4,0.1h-0.2
			c-3.7-0.1-5.5-0.1-6.5-1.8c-1-1.7-0.2-3.3,1.3-6.6l0.6-1.2L313,75h5.2c3.8,0,7.6-0.1,11.3-0.1c7,0,11.9-1.5,14.8-4.5
			s4.2-7.9,4-14.8c-0.2-5.3-2.2-7.4-7.4-7.4c-7.8-0.1-16-0.1-25,0c-5.9,0.1-7.8,2-8,8c-0.1,3.4-0.2,6.9-0.3,10.3l-0.2,6.8l-1.3,0.3
			c-0.1,0.1-0.1,0.3-0.2,0.4c-0.4,0.8-1.1,2-2.6,2.4c-1,0.3-2.1,0-3.3-0.7l-0.7-0.4l-0.2-0.8c-1.7-5.7-3.4-11.5-5.1-17.2
			c-4.2-14.2-8.5-29-12.9-43.4c-1.9-6.1-6.3-9.3-12.7-9.3c-58.6-0.1-119.8-0.1-181.7,0c-6.5,0-11,3.3-12.8,9.2
			C69.4,28.5,65,43.5,60.7,58.1c-1.7,5.8-3.4,11.6-5.1,17.4l-0.4,1.4L53.7,77c-2.7,0.2-3.9-1.7-4.6-2.7c-0.2-0.3-0.5-0.7-0.6-0.8
			l-1-0.6v-1.2c-0.1-1.7-0.1-3.4-0.1-5.1c-0.1-3.7-0.2-7.6-0.4-11.4c-0.3-4.7-2.4-6.9-7-7c-6.8-0.1-13.6-0.1-20.3,0
			c-2.3,0-4.6,0-6.9,0c-1.1,0-4.9,0.3-5.7,3.7c-1.6,6.9-0.7,13.3,2.5,17.5c2.7,3.6,6.9,5.4,12.5,5.6c4.5,0.1,9.1,0.1,13.5,0.1
			c2.1,0,4.1,0,6.2,0h1.4l0.6,1.2c1.5,3.1,2.2,4.7,1.6,6.2l-0.3,0.9l-0.9,0.3c-0.9,0.3-1.8,0.6-2.8,0.9L41,84.7
			c-0.7,0-1.5,0.1-2.5,0.1c-0.8,0-1.6,0-2.4-0.1c-1.9-0.1-3.6-0.2-5.1,0.5l-0.3,0.1h-0.3c-9.2,1.4-14.9,8.1-15,17.3
			c-0.1,12,0,24.1,0,35.9c0,5.1,0,10.2,0,15.2v1.9l-1.9,0.2c-4.4,0.4-7.1,0.8-7.9,1.7s-0.9,3.7-0.9,8.2v3.5c0,2.7,0,5.4,0,8.2
			c0.1,4.8,1.1,5.8,6,5.9c3.1,0.1,6.2,0.1,9.3,0.2l6.1,0.1v11.8c0,7.6,0,15.2,0,22.7c0,6.5,1.6,8.1,8.1,8.1c10.9,0,21.7,0,32.6,0
			h7.3c7.8,0,9.5-1.7,9.6-9.7c0.1-7.2,0-14.3,0-21.5c0-3.1,0-6.2,0-9.4v-2l2-0.1c9.9-0.5,19-0.4,27.9,0l2,0.1v2
			c0,5.4,0.5,8.2,1.7,9.4c0.5,0.5,1.5,1.1,4.3,1.1c33.8,0.1,69.4,0.1,112,0c4.1,0,5.6-1.6,5.9-5.9c0.1-1,0-2.1,0-3.2
			c0-0.5,0-1,0-1.5v-2l2-0.1C245.7,183.4,250.3,183.3,255.1,183.3z"/>
	</g>
	<g>
		<path class="st0" d="M93.3,87.1c-9.4,0-18.9-0.1-28.2-0.6l-2.5-0.1l0.5-2.5c2.4-10.8,5.4-21.6,8.4-32c1.7-6,3.5-12.2,5.1-18.4
			c0.6-2.3,1.3-4.6,1.9-6.9c0.8-2.8,1.6-5.6,2.3-8.5c1.1-4.4,3.9-6.5,8.4-6.5c0,0,0,0,0.1,0c20.7,0.1,41.7,0.1,62.1,0.1h20.3
			l0.6,0.8c2.3,2.9,1.4,5.8,0.4,7.8c-5.2,11-10.9,21.9-16.4,32.4c-4.9,9.4-10,19.2-14.7,28.9c-1.6,3.3-4.6,5.2-8.3,5.2
			c0,0,0,0-0.1,0c-7.5,0-15.2,0-22.6,0.1C104.9,87.1,99.1,87.1,93.3,87.1z M67.8,82.4c14.3,0.6,28.8,0.5,42.8,0.3
			c7.4-0.1,15.1-0.1,22.6-0.1l0,0c2,0,3.6-1,4.5-2.8c4.7-9.8,9.8-19.5,14.8-29c5.5-10.5,11.2-21.4,16.4-32.3
			c0.6-1.2,0.7-1.9,0.5-2.4h-18.1c-20.4,0-41.4,0-62.1-0.1c-2.7-0.1-3.7,0.8-4.3,3.3c-0.7,2.9-1.6,5.8-2.4,8.6
			c-0.6,2.3-1.3,4.5-1.9,6.8c-1.6,6.2-3.4,12.4-5.1,18.5C72.8,62.7,70.1,72.6,67.8,82.4z"/>
	</g>
	<g>
		<path class="st0" d="M257.6,143.1L257.6,143.1c-52.9-0.1-106.7-0.1-159.9,0l0,0c-3.1,0-5.4-0.8-6.9-2.3c-1.5-1.6-2.2-3.8-2.2-6.9
			c0.1-4.9,0.1-9.9,0.1-14.7c0-3.4,0-6.9,0-10.3c0.1-7.5,2.1-9.6,9.7-9.6c19.2,0,38.4,0,57.6,0h22.4v2.1v-2.1h19.5
			c19.5,0,38.9,0,58.4,0c8.9,0,10.7,1.8,10.7,10.7c0,2.9,0,5.7,0,8.6c0,5,0,10.3,0.1,15.4c0.1,3-0.7,5.3-2.2,6.8
			C263.1,142.4,260.8,143.1,257.6,143.1z M177.3,138.8c26.9,0,53.8,0,80.4,0.1l0,0c2,0,3.3-0.3,4-1.1c0.7-0.7,1-1.9,0.9-3.7
			c-0.1-5.2-0.1-10.4-0.1-15.5c0-2.9,0-5.7,0-8.5c0-6.4,0-6.4-6.4-6.4c-19.5,0-38.9,0-58.4,0h-19.5h-22.4c-19.2,0-38.4,0-57.6,0
			c-5.2,0-5.4,0.2-5.4,5.3c0,3.4,0,6.8,0,10.3c0,4.8,0,9.9-0.1,14.8c0,1.9,0.3,3.1,1,3.8s2,1,3.9,1l0,0
			C124.2,138.8,150.7,138.8,177.3,138.8z"/>
	</g>
	<g>
		<path class="st0" d="M287,87.1c-0.4,0-0.8,0-1.1,0c-0.3,0-0.6,0-0.8,0l0,0c-27.4,0-54.8,0-82.1,0c-3,0-5.9-0.3-7.3-2.5
			c-1.4-2.2-0.4-4.9,0.9-7.6c5.3-11.2,11.1-22.3,16.7-33c4.4-8.5,9-17.2,13.3-26c1.3-2.6,3.4-4.5,6.5-5.9l0.4-0.2h9.1
			c7.6,0,15.1,0,22.7-0.1c1.6,0,6.6-0.1,8.1,5.5c1.9,7.1,4,14.2,5.9,21.2c4.2,14.8,8.5,30.2,12.2,45.4l0.3,1.4l-1.2,0.8
			C289.3,87,288.1,87.1,287,87.1z M285.1,82.8c0.4,0,0.7,0,1.1,0c0.2,0,0.3,0,0.5,0c-3.5-14.5-7.6-29.1-11.6-43.2
			c-2-6.9-4-14.1-5.9-21.2c-0.4-1.6-1.1-2.4-3.9-2.4c-7.6,0.1-15.1,0.1-22.7,0.1h-8.2c-1.9,0.9-3.2,2.1-4,3.7
			c-4.3,8.8-8.9,17.6-13.3,26.1c-5.6,10.7-11.4,21.7-16.6,32.8c-1.3,2.8-1.1,3.5-1.1,3.6c0,0,0.5,0.4,3.7,0.4
			C230.3,82.8,257.7,82.8,285.1,82.8L285.1,82.8z"/>
	</g>
	<g>
		<path class="st0" d="M38.3,138.8c-2.4,0-4.2-0.6-5.4-1.9c-1.2-1.3-1.9-3.1-1.8-5.4c0.1-6.6,0.1-13.1,0-19.6c0-2.5,0.5-4.3,1.8-5.5
			c1.2-1.2,3-1.8,5.4-1.7c4,0.1,8,0.1,11.9,0.1c1.7,0,3.4,0,5.1,0c1.7,0,3.4,0,5.1,0c3.9,0,7.9,0,11.8-0.1c2.8-0.1,4.7,0.6,6.1,1.9
			c1.3,1.3,2,3.3,1.9,5.8c-0.1,5.5-0.1,11,0,16.4v1.6c0,2.7-0.7,4.8-2.1,6.2s-3.5,2.2-6.1,2.1C58.8,138.7,48.1,138.7,38.3,138.8
			L38.3,138.8z M37.8,108.9c-0.8,0-1.7,0.1-2.1,0.5c-0.4,0.4-0.5,1.2-0.5,2.4c0.1,6.6,0.1,13.1,0,19.7c0,0.8,0.1,1.8,0.6,2.3
			s1.6,0.6,2.4,0.6l0,0c9.9,0,20.5,0,33.5,0c1.5,0,2.5-0.3,3.1-0.9c0.6-0.6,0.9-1.7,0.9-3.2v-1.6c0-5.4-0.1-11,0-16.6
			c0-1.3-0.2-2.3-0.7-2.7c-0.5-0.5-1.5-0.7-3-0.7c-4,0.1-8,0.1-12,0.1c-1.7,0-3.4,0-5.1,0c-1.7,0-3.4,0-5,0c-3.9,0-8,0-12-0.1
			C38,108.9,37.9,108.9,37.8,108.9z"/>
	</g>
	<g>
		<path class="st0" d="M315.8,138.8h-0.1c-11.3-0.1-22.5-0.1-32.9,0c0,0,0,0-0.1,0c-2.8,0-4.9-0.7-6.3-2.2c-1.4-1.4-2.1-3.4-2.1-6
			V129c0-5.6,0.1-11.3,0-17c0-2.4,0.6-4.2,1.9-5.5s3.2-1.9,5.9-1.9c4,0.1,8.1,0.1,12,0c1.6,0,3.3,0,4.9,0v2.1v-2.1
			c1.7,0,3.5,0,5.2,0c3.9,0,7.9,0,11.8-0.1c2.6-0.1,4.4,0.5,5.6,1.8c1.2,1.2,1.8,3,1.7,5.3c-0.1,5.7-0.1,12,0,19.6
			c0,2.5-0.6,4.3-1.9,5.6C320.3,138.2,318.4,138.8,315.8,138.8z M299.8,134.5c5.3,0,10.6,0,16,0.1c1.3,0,2.3-0.2,2.8-0.7
			c0.4-0.4,0.6-1.3,0.6-2.5c-0.1-7.7-0.1-14,0-19.8c0-0.8-0.1-1.8-0.5-2.2c-0.4-0.4-1.3-0.5-2.5-0.5c-4,0.1-8,0.1-11.9,0.1
			c-1.7,0-3.4,0-5.1,0c-1.6,0-3.3,0-4.9,0c-4,0-8.1,0-12.1,0c-1,0-2.3,0.1-2.8,0.7c-0.4,0.4-0.6,1.2-0.6,2.4
			c0.1,5.7,0.1,11.5,0,17.1v1.6c0,1.4,0.3,2.4,0.8,3c0.6,0.6,1.7,0.9,3.3,0.9C288.2,134.5,294,134.5,299.8,134.5z"/>
	</g>
	<g>
		<path class="st0" d="M149.9,87.2c-1.8,0-3.5-0.3-4.7-1c-1.1-0.6-1.8-1.4-2.1-2.4c-0.4-1.5,0.3-2.8,0.7-3.6
			c0.1-0.1,0.2-0.3,0.2-0.4c2.3-4.6,4.5-9.1,6.7-13.3c6.7-12.9,13.3-25.7,20-38.6L179,12h18l-0.8,2.7c-1.3,4.5-3.5,8.6-5.6,12.5
			c-0.8,1.4-1.5,2.8-2.3,4.2C182,44,175.4,56.8,169,69.1l-6,11.6c-1.3,2.4-4.3,4.6-8.1,5.8C153.4,86.9,151.6,87.2,149.9,87.2z
			 M147.5,82.5c1.4,0.6,3.9,0.6,6.5-0.2c2.7-0.8,4.8-2.3,5.5-3.6l6-11.6c6.3-12.3,12.9-25.1,19.2-37.6c0.7-1.5,1.5-2.9,2.3-4.4
			c1.6-3,3.2-5.8,4.3-8.9h-9.6l-7.1,13.6c-6.7,12.9-13.4,25.7-20,38.6c-2.2,4.2-4.4,8.7-6.7,13.3C147.8,81.9,147.7,82.1,147.5,82.5
			C147.5,82.3,147.5,82.4,147.5,82.5z"/>
	</g>
	<g>
		<path class="st0" d="M137.3,134.4c-1.9,0-4.1-0.3-6.6-1c-2-0.5-4.4-2-4.5-5.8c-0.1-1.5,0-3,0-4.5c0-0.6,0-1.3,0-1.9
			c-0.1-6.7,2.5-9.9,4.6-11.4c2.2-1.5,6.1-2.8,12.5-0.4c2.4,0.9,3.7,2.8,3.8,5.6c0.1,2,0.1,3.9,0.1,5.9c0,6-1.2,9.7-3.9,11.8
			C141.8,133.8,139.8,134.4,137.3,134.4z M136.9,112.3c-1.3,0-2.5,0.3-3.5,1c-2.4,1.7-2.8,5.2-2.8,7.8l0,0c0,0.6,0,1.3,0,1.9
			c0,1.4,0,2.9,0,4.3c0,1.3,0.4,1.6,1.3,1.8c4.4,1.2,7.3,1.2,8.9,0c1.5-1.2,2.3-3.9,2.3-8.4c0-2,0-3.9-0.1-5.7c0-1.3-0.4-1.5-1-1.8
			C140.4,112.8,138.6,112.3,136.9,112.3z"/>
	</g>
	<g>
		<path class="st0" d="M218.2,134.4c-1.9,0-4.1-0.4-6.6-1.1c-2.7-0.8-4.2-2.6-4.3-5.3c-0.1-1.9-0.1-3.8-0.1-5.4
			c0-6.6,0-9.9,2.1-11.9s5.1-1.9,11.3-1.8h0.4c2.6,0.1,4.5,0.8,5.8,2.1c1.2,1.3,1.7,3.2,1.6,5.6c-0.1,1.1,0,2.1,0,3.3
			c0,0.5,0,0.9,0,1.4l0,0c0,5.6-1.3,9.3-4.1,11.3C222.6,133.8,220.7,134.4,218.2,134.4z M216.4,113c-2.2,0-3.7,0.1-4.2,0.6
			c-0.8,0.8-0.8,4.2-0.8,8.8c0,1.6,0,3.5,0.1,5.2c0.1,0.8,0.2,1.2,1.2,1.5c4.2,1.2,7.2,1.2,8.8,0c1.6-1.2,2.3-3.8,2.3-7.9
			c0-0.4,0-0.9,0-1.3c0-1.2,0-2.4,0-3.6c0-0.9,0-2-0.5-2.5c-0.4-0.4-1.4-0.7-2.7-0.7h-0.4C218.9,113.1,217.6,113,216.4,113z"/>
	</g>
	<g>
		<path class="st0" d="M164.5,134.3c-1.8,0-4-0.3-6.5-0.9c-2.8-0.7-4.2-2.5-4.3-5.3c-0.1-2.3-0.1-4.6-0.1-7c0-5.7,1.2-9.3,3.8-11.3
			s6.5-2.2,12.1-0.7c2.8,0.8,4.2,2.6,4.3,5.4c0,1.6,0,3.3,0,4.9v2.1c0.1,5.7-1,9.1-3.5,11.1C168.9,133.7,167,134.3,164.5,134.3z
			 M163.2,112.4c-1.4,0-2.4,0.3-3.1,0.8c-1.4,1.1-2.1,3.7-2.1,7.8c0,2.3,0,4.6,0.1,6.8c0,0.9,0.1,1.1,1.1,1.3c4.4,1.1,7.3,1.1,8.7,0
			c1.3-1.1,2-3.6,1.9-7.7v-2.1c0-1.6,0-3.2,0-4.7c0-0.7-0.1-1.1-1.2-1.4C166.3,112.7,164.5,112.4,163.2,112.4z"/>
	</g>
	<g>
		<path class="st0" d="M191.3,134.3c-1.8,0-4-0.3-6.5-1c-3.5-0.9-4.3-3.4-4.4-5.3c-0.1-2.1-0.1-4.3-0.1-6.4c0-5.6,0.5-9.4,3.1-11.6
			s6.6-2,12.2-1c4,0.7,4.9,3.4,5,5.5c0,1.6,0,3.3,0,4.9v2.1c0,5.7-1.1,9.2-3.6,11.1C195.7,133.8,193.8,134.3,191.3,134.3z
			 M189.3,112.6c-1.5,0-2.5,0.2-3,0.7c-1.1,0.9-1.6,3.4-1.6,8.3c0,2.1,0,4.2,0.1,6.3c0,0.7,0.1,1,1.1,1.3c4.4,1.1,7.2,1.1,8.6,0
			c1.3-1.1,2-3.6,1.9-7.7v-2.1c0-1.6,0-3.2,0-4.8c0-0.8,0-1.1-1.4-1.4C192.6,112.8,190.7,112.6,189.3,112.6z"/>
	</g>
	<g>
		<path class="st0" d="M109.8,134.4c-1.9,0-4-0.4-6.4-1.1c-4.1-1.3-4.1-4.9-4.1-6.1c0-1.9,0-3.8,0-5.7c0-2,0-4,0-5.9
			c0-4.1,2.2-6.3,6.6-6.6c6.4-0.5,9.6-0.7,11.7,1.3s2.1,5.2,2.1,11.5l0,0c0,5.3-1.4,9-4.2,11C114,133.8,112.1,134.4,109.8,134.4z
			 M112,112.9c-1.5,0-3.5,0.1-5.7,0.3c-2.5,0.2-2.7,0.7-2.7,2.3c0,2,0,4,0,6c0,1.9,0,3.8,0,5.7c0,1.5,0.3,1.8,1.2,2
			c3.9,1.2,6.6,1.3,8.3,0.1c1.6-1.2,2.4-3.7,2.4-7.5c0-4.3,0-7.7-0.8-8.4C114.4,113,113.4,112.9,112,112.9z"/>
	</g>
	<g>
		<path class="st0" d="M242.8,134c-2.4,0-4.3-0.4-5.7-1.7c-2.4-2.1-2.6-5.8-2.6-11.6l0,0c0-5.3,1.4-9,4.2-11
			c2.9-2.1,6.8-2.3,12.1-0.6c2.7,0.9,4.1,2.9,4.1,6.1c0,2,0,3.9,0,5.9c0,1.9,0,3.8,0,5.8c0,2.7-1,6-5.9,6.6
			C246.7,133.8,244.6,134,242.8,134z M238.9,120.8c0,3.9,0.1,7.5,1.1,8.4s4.6,0.6,8.6,0.1c1.9-0.2,2.2-0.7,2.2-2.3
			c0-1.9,0-3.9,0-5.8c0-2,0-3.9,0-5.9c0-1.5-0.4-1.8-1.2-2c-3.9-1.2-6.6-1.3-8.3-0.1C239.7,114.4,238.9,117,238.9,120.8L238.9,120.8
			z"/>
	</g>
</g>
</svg>
