<?xml version="1.0" encoding="utf-8"?>
<!-- Generator: Adobe Illustrator 24.0.2, SVG Export Plug-In . SVG Version: 6.00 Build 0)  -->
<svg version="1.1" id="Layer_1" xmlns="http://www.w3.org/2000/svg" xmlns:xlink="http://www.w3.org/1999/xlink" x="0px" y="0px"
	 viewBox="0 0 354.3 354.3" style="enable-background:new 0 0 354.3 354.3;" xml:space="preserve">
<style type="text/css">
	.st0{fill:#FFFFFF;}
</style>
<g>
	<path class="st0" d="M0,305.2c1.8-3.1,4.5-4.2,8.1-4.1c14.5,0.1,29,0,43.6,0.1c8.5,0,13.3,4.8,13.3,13.2c0,9.2,0,18.4,0,27.9
		c74.7,0,149.2,0,224.3,0c0-1.1,0-2.3,0-3.5c0-8.3,0-16.6,0-24.9c0-7.8,4.9-12.7,12.8-12.7c15-0.1,30,0,45,0c4.8,0,7.8,2.9,7.2,6.8
		c-0.5,3.2-2.9,5-6.8,5c-14.1,0-28.1,0-42.2,0c-1.2,0-2.5,0-4.1,0c0,5.3,0,10.2,0,15.2c0,3.8-0.2,7.6,0,11.4
		c0.5,7.2-2.3,12.2-9.1,14.8c-76.6,0-153.2,0-229.7,0c-6.8-2.6-9.7-7.6-9.1-14.8c0.3-3.6,0-7.1,0-10.7c0-5.1,0-10.3,0-15.8
		c-1.6,0-2.9,0-4.1,0c-13.5,0-27-0.1-40.5,0.1c-3.6,0-6.5-0.7-8.7-3.7C0,307.9,0,306.5,0,305.2z"/>
	<path class="st0" d="M307,65c0,8.6-0.1,16.8,0,24.9c0.1,4.2-0.9,7.8-3,11.4c-12.3,20.7-24.4,41.5-36.4,62.4
		c-3,5.3-7.2,7.8-13.2,7.6c-4-0.2-8,0-12.3,0c0,8.9,0,17.3,0,25.7c0,1.2,0,2.3,0,3.5c-0.2,3.8-2.7,6.4-6,6.3c-3.3,0-5.8-2.6-5.8-6.4
		c-0.1-8.3,0-16.6,0-24.9c0-1.2,0-2.5,0-4.1c-4.5,0-8.6-0.1-12.7,0c-5.8,0.2-9.8-2.3-12.7-7.3c-12.1-20.8-24.3-41.6-36.5-62.3
		c-2.1-3.6-3.1-7.3-3-11.5c0.2-8.3,0.1-16.5,0.1-25.2c-5.6,0-10.8,0-16.1,0c-8.8,0-13.5-4.7-13.5-13.4c0-12.8,0-25.6,0-38.4
		c0-8.5,4.8-13.2,13.4-13.2c58,0,116,0,174,0c8.9,0,13.4,4.5,13.4,13.4c0,12.7,0,25.4,0,38c0,9-4.6,13.5-13.7,13.5
		C317.8,65,312.7,65,307,65z M295.2,65.2c-39.5,0-78.7,0-117.7,0c0,7.9,0,15.6,0,23.3c7.3,0,14.3,0,21.4,0c5,0,7.8,2.1,7.8,5.8
		c0.1,3.8-2.8,6-8,6c-5.5,0-11,0-16.8,0c0.3,0.8,0.4,1.3,0.6,1.6c10.8,18.5,21.5,37.1,32.4,55.5c0.6,1,2.6,1.8,3.9,1.8
		c11.4,0.1,22.8,0,34.3,0.1c2.5,0,3.9-0.8,5.1-3c10.2-17.7,20.5-35.3,30.8-52.9c0.6-0.9,1-2,1.7-3.3c-19.5,0-38.5,0-57.5,0
		c-1.3,0-2.6,0.1-3.8-0.1c-2.8-0.4-5.1-3-4.9-5.8c0.2-3,1.8-5,4.7-5.7c1.1-0.3,2.3-0.2,3.4-0.2c19.6,0,39.2,0,58.8,0
		c1.2,0,2.4,0,3.8,0C295.2,80.6,295.2,73,295.2,65.2z M147.8,53c59.2,0,117.9,0,176.8,0c0-13.8,0-27.3,0-40.9c-3.9,0-7.7,0-11.3,0
		c-0.1,0.5-0.2,0.7-0.2,0.9c0,3.1,0,6.2-0.1,9.3c-0.1,4.4-2.2,7.1-5.7,7.2c-3.7,0.1-6-2.7-6-7.3c0-3.4,0-6.8,0-10.3
		c-4.2,0-7.8,0-11.8,0c0,3.5,0,6.8,0,10.1c0,4.7-2.2,7.4-5.8,7.4c-3.6,0-5.9-2.8-5.9-7.4c0-3.4,0-6.8,0-10.2c-4.2,0-7.8,0-11.4,0
		c-0.2,0.4-0.3,0.6-0.3,0.8c0,3.2,0,6.5-0.1,9.7c-0.1,4.3-2.4,7.1-5.9,7.1c-3.5,0-5.8-2.7-5.9-7.1c0-3.5,0-7,0-10.4
		c-4.2,0-7.9,0-11.8,0c0,3.8,0.1,7.3,0,10.9c-0.1,4-2.6,6.7-6,6.6c-3.4,0-5.7-2.7-5.8-6.8c0-3.5,0-7.1,0-10.7c-4.1,0-7.9,0-11.8,0
		c0,3.7,0.1,7.1,0,10.6c-0.1,4.3-2.6,7-6.1,6.9c-3.4-0.1-5.6-2.7-5.7-6.9c-0.1-3.5,0-7.1,0-10.7c-4.2,0-7.8,0-11.8,0
		c0,2,0,3.8,0,5.6c0,2,0.1,3.9-0.1,5.9c-0.4,5.1-5.4,7.9-9,4.9c-1.5-1.2-2.4-3.6-2.6-5.6c-0.4-3.6-0.1-7.2-0.1-10.8
		c-4.3,0-7.9,0-11.9,0c0,3.6,0,6.9,0,10.2c-0.1,4.6-2.4,7.4-6,7.3c-3.5-0.1-5.7-2.8-5.8-7.2c-0.1-3.4,0-6.8,0-10.2
		c-4.2,0-7.9,0-11.6,0C147.8,25.8,147.8,39.3,147.8,53z"/>
	<path class="st0" d="M118.1,277.8c-0.2,11.1-5.4,20.2-13.8,27.7c-2.3,2.1-5.8,1.7-7.9-0.3c-2.2-2.2-2.4-5.6-0.2-8.1
		c1.5-1.7,3.2-3.3,4.7-5.1c7.2-9.2,7.2-19.7-0.1-28.9c-1.9-2.4-4.3-4.5-6.5-6.7c-16.1-15.9-15.5-38.6,1.5-53.6
		c4-3.6,9.5-2.4,10.2,2.4c0.3,2-0.9,4.7-2.4,6.3c-4.2,4.5-7.9,9.1-8.9,15.2c-1.4,8.5,2,15.3,7.8,21.2c2.6,2.7,5.4,5.3,7.8,8.3
		C115.4,262.3,118,269.5,118.1,277.8z"/>
	<path class="st0" d="M135.8,207.9c-0.2,10.4-5.5,19.3-13.7,26.7c-2.4,2.1-5.7,1.9-7.8-0.2c-2.2-2.2-2.4-5.6-0.3-8.1
		c1.6-1.8,3.4-3.4,4.9-5.4c7-9.1,6.9-19.6-0.3-28.6c-1.9-2.4-4.2-4.6-6.4-6.7c-16.2-15.9-15.6-38.6,1.5-53.6
		c2.9-2.5,6.3-2.6,8.7-0.2c2.3,2.4,2.2,5.8-0.5,8.6c-1.3,1.3-2.6,2.6-3.8,4c-7.9,9.6-7.9,20.7,0.2,30.2c2,2.4,4.4,4.4,6.5,6.7
		C131.6,188.4,135.8,196.8,135.8,207.9z"/>
	<path class="st0" d="M230.4,256.4c0-10.2,0-20.3,0-30.4c0-4.8,2-7.3,5.8-7.4c3.8,0,6,2.6,6,7.3c0,20.8,0,41.5,0,62.3
		c0,2.7-0.6,5.4-3.3,6.3c-1.7,0.6-4.5,0.6-5.7-0.4c-1.5-1.2-2.6-3.8-2.7-5.8C230.2,277.6,230.4,267,230.4,256.4z"/>
	<path class="st0" d="M216.6,302.7c0,5.7-4.3,8.6-8.2,6.7c-3.5-1.7-6.9-3.7-10.3-5.7c-11.8-6.8-23.5-13.6-35.3-20.4
		c-2.7-1.6-4.6-3.6-3.9-6.9c0.9-4.4,5.2-6,9.5-3.5c9.8,5.6,19.5,11.3,29.3,16.9c5,2.9,10.1,5.6,14.9,8.7
		C214.5,299.7,215.7,301.7,216.6,302.7z"/>
	<path class="st0" d="M308.6,271.1c1.5,1.3,3.8,2.4,4.4,4.1c0.6,1.7-0.1,4.1-0.8,6c-0.3,0.9-1.6,1.6-2.6,2.1
		c-14.3,8.3-28.7,16.5-43,24.8c-0.8,0.5-1.6,0.9-2.5,1.2c-2.8,1.2-5.7,0.3-7.2-2.1c-1.6-2.5-1.1-5.9,1.3-7.8c0.6-0.5,1.3-0.9,2-1.3
		c14.4-8.3,28.9-16.7,43.3-25C304.8,272.5,306.4,272,308.6,271.1z"/>
	<path class="st0" d="M252.5,299c-5.5,0-8.3-3.8-7-7.6c0.3-1,0.9-1.9,1.4-2.8c8.3-14.3,16.6-28.7,24.8-43c0.3-0.5,0.6-1,0.9-1.5
		c2-2.8,5.1-3.6,7.8-2.1c2.9,1.6,3.9,4.9,2.3,8c-1.2,2.5-2.7,4.8-4.1,7.2c-7.2,12.5-14.4,25.1-21.8,37.6
		C255.6,296.9,253.4,298.2,252.5,299z"/>
	<path class="st0" d="M227.9,294c-1.3,1.5-2.4,3.8-4.1,4.4c-1.7,0.6-4.2,0-6-0.7c-1.1-0.4-1.8-2-2.5-3.2
		c-8.2-14.2-16.5-28.5-24.7-42.7c-0.4-0.7-0.8-1.4-1.1-2.1c-1.2-2.9-0.2-5.9,2.4-7.4c2.6-1.5,5.8-0.9,7.7,1.6c1,1.3,1.7,2.7,2.5,4.1
		c7.8,13.5,15.7,27.1,23.4,40.6C226.4,290.1,227,291.7,227.9,294z"/>
	<path class="st0" d="M180,324.7c-8.4,0-16.8,0-25.2,0c-4.4,0-7.1-2.3-7.1-5.8c0-3.5,2.7-5.9,7.1-5.9c16.9,0,33.9,0,50.8,0
		c4.4,0,7,2.3,7,5.9c0,3.7-2.5,5.8-7,5.8C197,324.7,188.5,324.7,180,324.7z"/>
	<path class="st0" d="M242.1,318.8c0,3.2-2.6,5.9-5.9,5.9c-3.2,0-5.7-2.4-5.8-5.6c-0.1-3.3,2.4-6,5.7-6.1
		C239.2,312.9,242.1,315.6,242.1,318.8z"/>
	<path class="st0" d="M141.7,271.6c-3.2,0-6-2.7-5.9-5.9c0-3.2,2.8-5.8,6.1-5.8c3.2,0.1,5.6,2.5,5.6,5.7
		C147.6,269,145,271.5,141.7,271.6z"/>
	<path class="st0" d="M336.5,265.7c0,3.3-2.6,5.9-5.9,5.9c-3.2,0-5.9-2.8-5.8-6c0.1-3.1,2.6-5.6,5.8-5.7
		C333.9,259.8,336.5,262.4,336.5,265.7z"/>
</g>
</svg>
