<?xml version="1.0" encoding="utf-8"?>
<!-- Generator: Adobe Illustrator 24.0.2, SVG Export Plug-In . SVG Version: 6.00 Build 0)  -->
<svg version="1.1"
	 id="svg5" xmlns:inkscape="http://www.inkscape.org/namespaces/inkscape" xmlns:sodipodi="http://sodipodi.sourceforge.net/DTD/sodipodi-0.dtd" xmlns:svg="http://www.w3.org/2000/svg"
	 xmlns="http://www.w3.org/2000/svg" xmlns:xlink="http://www.w3.org/1999/xlink" x="0px" y="0px" viewBox="0 0 354.3 326.7"
	 style="enable-background:new 0 0 354.3 326.7;" xml:space="preserve">
<style type="text/css">
	.st0{fill:#FFFFFF;}
</style>
<sodipodi:namedview  bordercolor="#eeeeee" borderopacity="1" id="namedview7" inkscape:current-layer="layer1" inkscape:cx="21.279994" inkscape:cy="561.92484" inkscape:document-units="mm" inkscape:pagecheckerboard="0" inkscape:pageopacity="0" inkscape:pageshadow="0" inkscape:window-height="1016" inkscape:window-maximized="1" inkscape:window-width="1840" inkscape:window-x="80" inkscape:window-y="27" inkscape:zoom="0.75187991" pagecolor="#505050" showgrid="false">
	</sodipodi:namedview>
<g id="layer1" inkscape:groupmode="layer" inkscape:label="Layer 1">
	<path id="path21" class="st0" d="M82.2,326.5c-27.7-1.8-44.2-3.9-63.5-7.9c-3.5-0.7-7.2-1.7-8.2-2c-3.3-1.3-6.4-4.1-8.4-7.8
		c-1.7-3-2-4.4-2-8.5c0-7,1.5-9.3,13.2-19.7l9.8-8.7l0.4-19.1c0.3-16.4,0.6-19.8,1.8-24.5c6.1-22.7,26.6-38.6,49.7-38.6h4.4v-36.2
		v-36.2l-11.1,11.1c-11,11-11.1,11.1-14.2,11.1H51l-25.5-25.5L0,88.4v-3.1v-3.1l32.6-32.5C65.9,16.4,69.4,13.3,80,8
		c5.2-2.6,14.6-5.7,21.3-7.1c3.9-0.8,18.2-1,76.3-1c67.1,0,71.8,0.1,77.3,1.3c7,1.5,14,4,19.8,6.9c10.3,5.1,13.9,8.4,47.1,41.5
		l32.6,32.5v3.1v3.1l-25.5,25.5l-25.5,25.5h-3.1c-3.1,0-3.2-0.1-14.2-11.1L275,117.2v19.2v19.2l5.7-0.4c10.5-0.7,20.3,2.9,27.5,10.2
		c5.8,5.8,10.4,15.5,10.4,22l0,2.3h6.6c7.5,0,10.1,0.9,11.8,4.2c0.8,1.5,2.5,18.2,6.4,63.1c5.2,59.2,5.3,61.1,4.2,63.5
		c-2.2,4.7,0.5,4.5-64.8,4.5h-58.9l-2.4-1.6c-3.3-2.2-4-5-3.3-12.3c0.3-3.2,0.4-6.3,0.3-6.8c-0.3-0.7-2.6-0.8-9.8-0.7l-9.5,0.2
		l-1,2.9c-0.5,1.6-2.3,4.3-4,6c-2.4,2.4-4,3.4-7.7,4.5c-9,2.7-35.1,6.7-54,8.4C123.9,326.3,88.9,327,82.2,326.5L82.2,326.5z
		 M136.2,314.8c19-1.9,43.7-6,48.7-8.1c3.3-1.3,5-6.4,3.2-9.6c-0.4-0.7-4.9-5.1-10.1-9.7c-8.2-7.3-9.7-8.3-11.3-8
		c-3.8,0.8-20.9,3.2-30.6,4.2c-5.5,0.6-18.6,1.3-29.1,1.5c-18.9,0.4-19.1,0.4-21-1.1c-2.5-2-2.6-5.6-0.2-7.5
		c1.6-1.2,3.4-1.4,21.3-1.8c10.8-0.2,23.7-0.9,28.6-1.5c5-0.6,9.4-1.1,10-1.1c0.8,0,0.9-3.2,0.6-18.2c-0.3-15.7-0.5-19-1.8-23.8
		c-3.5-12.9-11-23.5-19.9-27.8l-4.2-2H99.5H78.4l-4.2,2c-8.9,4.3-16.4,14.9-19.9,27.8c-1.3,4.8-1.5,8.1-1.8,23.7L52.2,272l4.1,0.5
		c2.2,0.3,5.6,0.7,7.5,0.9c4.1,0.5,6,2.1,6,5.4c0,3.7-2.7,5.4-7.6,4.9c-5.3-0.6-27.7-3.7-29.9-4.2c-1.5-0.3-3.2,0.9-11.5,8.3
		c-5.4,4.8-9.9,9.2-10.2,9.8c-1.3,3.4,0.5,8,3.5,9.2c7.2,2.9,42.7,8,65.4,9.4C89.1,316.7,126,315.8,136.2,314.8L136.2,314.8z
		 M80.7,265.7c-1.5-1-2.7-2.6-3.3-4.4c-0.8-2.6-0.7-3.3,1.2-9.3c1.1-3.6,2-6.5,1.9-6.6c-2.2-1.1-10.5-8-11.3-9.4
		c-2-3.8-0.8-8.8,2.7-11.1c0.9-0.6,4.2-1.1,8.7-1.3l7.2-0.4l2-6c2.8-8.3,6.1-11.2,11.5-10c3.6,0.8,5.1,2.7,7.4,9.4l2.3,6.5l7.2,0.4
		c4,0.2,7.9,0.7,8.7,1.2c3.1,1.8,4.5,6.8,3,10.8c-0.4,0.9-3.1,3.6-6.2,5.9l-5.5,4.2l2.1,6.3c1.8,5.5,2,6.6,1.3,8.9
		c-1.1,3.7-3.6,5.7-7.5,6.1c-3.1,0.3-3.6,0.1-8.8-3.6c-6.2-4.5-5.5-4.5-12.8,0.7C87.5,267.8,84.5,268.2,80.7,265.7L80.7,265.7z
		 M99.5,248.3c1.9,0,3.5,0.7,6.2,2.7c2,1.5,3.8,2.5,3.9,2.4c0.2-0.2-0.3-2.2-1-4.5c-1.8-5.7-1.2-7.4,3.6-11.3l3.9-3.1l-4.8-0.4
		c-6.3-0.5-8.2-1.9-10-7.5c-0.7-2.3-1.6-4.3-1.8-4.3s-1,1.9-1.7,4.1c-1.8,5.9-3.4,7.2-9.7,7.6l-5.2,0.4l3.8,3
		c5.2,4,5.7,5.5,3.9,11.3c-0.8,2.5-1.5,4.8-1.5,5c0,0.3,1.8-0.8,3.9-2.5C96,249,97.5,248.3,99.5,248.3L99.5,248.3z M337.7,310.5
		c-0.7-6.8-9.4-107-9.4-108.8V200h-45.1h-45.1l0,1.6c0,0.9-0.6,7.2-1.2,14.2c-1.3,14.1-1.9,15.5-6.1,15.5c-3.2,0-5.1-2.1-5.1-5.4
		c0-1.4,0.6-9,1.3-16.7c1.7-18.7,2.3-19.5,13.7-19.5l6.4,0l0.8-4.9c1.4-8.6,7.5-18.3,14.2-22.9l2.5-1.7l0-54.6l0-54.6l1.6-1.7
		c2.3-2.5,5.2-2.7,7.5-0.4c1.3,1.3,1.4,2.3,1.4,27.6v26.2l12.7,12.6l12.7,12.6l21.3-21.3l21.3-21.3l-28.6-28.7
		c-15.7-15.8-31-30.5-34-32.8c-9.2-7-21.7-12-33.9-13.4c-4.5-0.5-3.9-1.3-5.4,7.2c-4.9,27.2-29.3,49.4-57.2,51.9
		c-20.3,1.9-38.7-4.8-53.1-19.3c-8.7-8.8-15.2-21-17.3-32.7c-1.5-8.6-0.9-7.7-5.4-7.2c-12.1,1.5-24.5,6.3-33.9,13.4
		c-3,2.3-18.3,17-34.1,32.8L11.4,85.3l21.3,21.3l21.3,21.3l12.7-12.6l12.7-12.6V76.5c0-25.3,0-26.3,1.4-27.6
		c2.3-2.3,5.2-2.1,7.5,0.4l1.6,1.7v60.8v60.8l9.1-0.2c8.7-0.2,9.3-0.1,12.9,1.6c4.9,2.4,7.3,5.9,7.7,11.4l0.3,4l6.7,0.4
		c8,0.5,13.3,1.8,19.9,4.9c12.3,5.8,22,16.7,26.3,29.5c2.5,7.3,3.1,13.6,3.2,31.5l0.1,16.1l9.5,8.3c5.2,4.6,10.2,9.5,11.1,10.9
		l1.7,2.6h10.6c10.5,0,10.6,0,10.9-1.6c0.2-0.9,1.1-10.8,2.1-22c1.7-20.2,1.8-20.5,3.6-22c2.2-1.9,4.5-2,6.5-0.1c2,1.9,2,3.2-0.9,36
		c-1.3,15-2.4,28-2.4,28.9v1.6h54.9h54.8L337.7,310.5L337.7,310.5z M263.3,286.3c-5-2.5-5.8-6.3-3-15c1.2-3.6,2.1-6.9,2.1-7.4
		s-2.6-2.7-5.9-5.1c-4.4-3.2-6.1-4.9-6.9-7c-1.4-3.4-1.4-3.7,0.3-7.2c2-4.2,4.4-5.1,13.4-5.1h7.3l2.1-6.8
		c2.9-9.3,4.7-11.3,10.5-11.3c5.1,0,7.1,2.2,9.9,10.8l2.2,6.9l7.9,0.4c4.4,0.2,8.6,0.7,9.4,1.2c2.9,1.6,4.4,4.3,4.4,7.8
		c0,4.1-1.1,5.6-7.8,10.5c-2.8,2-5.3,3.9-5.6,4.1c-0.3,0.2,0.4,3.2,1.6,6.6c3.3,9.8,2.6,13.9-2.9,16.7c-3.5,1.8-6.7,0.9-13.3-3.9
		l-6-4.3l-2.2,1.7C270.7,287.5,267.9,288.5,263.3,286.3L263.3,286.3z M275.7,270.8c6.6-4.7,8.4-4.7,14.8,0c2.6,1.9,4.9,3.3,5,3.2
		c0.1-0.1-0.5-2.8-1.5-6c-2.4-7.7-2-9,4.9-14.1l5.2-3.8l-7.1-0.2c-6.7-0.2-7.2-0.3-8.7-2.1c-0.9-1-2.3-4-3.1-6.6
		c-0.9-2.6-1.8-5-2-5.2c-0.3-0.3-1.3,2.1-2.4,5.4c-2.5,7.6-3.3,8.2-12.1,8.6l-6.6,0.4l4.2,3c7.7,5.4,8.3,7.3,5.4,16
		c-0.9,2.7-1.5,5-1.4,5C270.7,274.2,273,272.7,275.7,270.8L275.7,270.8z M149,181.4c-1.6-0.7-3.5-2.3-4.4-3.5
		c-2.8-3.9-2.6-6.3,1.4-18.7c3.1-9.4,3.5-11.4,2.7-11.9c-3.7-2.1-18.2-13.5-19.2-15c-1.9-2.9-1.7-9,0.4-11.9c3-4.2,5.8-4.9,18.8-4.9
		l11.5,0l3.4-10.4c4-12.4,5-14.2,8.9-16c3.7-1.7,5.6-1.7,9.3,0c3.8,1.7,4.9,3.6,8.9,16l3.4,10.4l11.5,0c13,0,15.9,0.8,18.8,4.9
		c2.1,3,2.3,9,0.4,11.9c-1,1.6-15.5,12.9-19.1,15c-0.8,0.5-0.4,2.6,2.7,12.1c4,12.5,4.2,14.6,1.3,18.6c-1.6,2.3-6.2,4.7-8.8,4.8
		c-2.8,0-6-1.7-15-8.3l-8.8-6.4l-8.6,6.3C156.6,183.1,154.5,183.9,149,181.4L149,181.4z M162.1,166.2c10.5-7.7,12.8-9.1,15-9.1
		c2.2,0,4.5,1.4,15.1,9.2c4.7,3.4,8.7,6.1,8.9,5.9c0.2-0.2-1.4-5.7-3.5-12.1c-2.1-6.5-3.9-12.4-3.9-13.1c0-2.8,3.1-5.9,12.4-12.7
		c5.4-3.9,9.8-7.4,9.8-7.7s-5.9-0.6-13.1-0.6c-17,0-15.8,0.9-21.3-15.6c-2.2-6.7-4.2-12.1-4.4-12.1c-0.2,0-2.2,5.4-4.4,12.1
		c-5.5,16.5-4.3,15.6-21.3,15.6c-7.2,0-13.1,0.3-13.1,0.6s4.2,3.6,9.4,7.3c9.6,6.9,11.9,9,12.6,12c0.3,1.1-0.9,5.8-3.5,13.6
		c-4.1,12.4-4.2,12.9-3.5,12.9C153.5,172.3,157.5,169.5,162.1,166.2L162.1,166.2z M43.3,232.6c1.5-8.5,5.3-17.9,9.9-24.9l1.6-2.4
		l-2.3,1.3c-3.6,2.1-9.8,8.7-12.7,13.5c-5,8.3-5.6,11.2-5.9,31.2l-0.3,17.8l4.1,0.6l4.1,0.6l0.4-16.6
		C42.3,244.6,42.8,235.1,43.3,232.6L43.3,232.6z M165.2,251.4c-0.3-19.6-0.6-21.4-5.2-30.2c-2.6-4.9-9.2-12.2-13.2-14.5l-2.2-1.3
		l2.5,3.9c3.4,5.3,6.3,12.6,8,19.7c1.1,4.8,1.5,9.3,1.8,23.6l0.4,17.7l4.1-0.7l4.1-0.7L165.2,251.4z M109.2,187.3
		c0-4-1.2-4.6-9.5-4.6c-8.4,0-9.9,0.7-9.9,4.6v2.3h9.7h9.7V187.3z M264.5,181.7c0-4.4-0.1-8-0.3-8c-0.8,0-4.6,7.1-5.6,10.4
		c-1.6,5.5-1.6,5.6,2.4,5.6h3.5V181.7z M308,186.2c-0.9-7.2-6.7-14.9-14.2-18.5c-3.4-1.7-4.8-1.9-10.2-2c-3.4,0-6.8,0.2-7.5,0.5
		c-1.1,0.4-1.2,1.7-1.2,12v11.5h16.7h16.7L308,186.2z M190.9,57.9c21.2-5.3,36.6-22.7,40.6-45.5l0.4-2.3h-3.5
		c-2.2,0-3.6,0.3-3.7,0.9c-0.1,0.5-0.7,3-1.4,5.6c-4,16.6-17.7,30.3-34.8,34.8c-5.5,1.4-17.4,1.4-22.9,0
		c-8.4-2.2-20.1-9.1-21.8-12.7c-1-2.3-0.9-3.2,0.7-5.3c2.1-2.7,4.9-2.4,9.3,0.9c7.5,5.7,14.3,8,23.6,7.9c10.8-0.1,19.5-4,27.2-12.2
		c4-4.3,8.4-12.5,9-17.1l0.4-2.8h-36.9h-36.9l0.5,4c0.4,3.3,0.2,4.3-0.8,5.5c-3.6,4.2-8.2,1.7-9.6-5.1l-0.8-4.1l-3.6-0.2l-3.6-0.2
		l0.4,2.3c2.5,14.5,10,27.6,20.2,35.4C157.2,58.6,173.9,62.2,190.9,57.9L190.9,57.9z"/>
</g>
</svg>
