<?xml version="1.0" encoding="utf-8"?>
<!-- Generator: Adobe Illustrator 24.0.2, SVG Export Plug-In . SVG Version: 6.00 Build 0)  -->
<svg version="1.1" id="Layer_1" xmlns="http://www.w3.org/2000/svg" xmlns:xlink="http://www.w3.org/1999/xlink" x="0px" y="0px"
	 viewBox="0 0 595.28 841.89" style="enable-background:new 0 0 595.28 841.89;" xml:space="preserve">
<style type="text/css">
	.st0{fill:#1B4CA1;}
</style>
<g>
	<path class="st0" d="M385.39,546.41c0,1.9,0,3.24,0,4.59c0,13.85,0.02,27.69-0.01,41.54c-0.01,5.24-1.69,6.87-6.99,6.87
		c-53.39,0.01-106.79,0.01-160.18,0c-5.19,0-6.84-1.68-6.85-7.01c-0.03-13.85-0.01-27.69-0.01-41.54c0-1.34,0-2.67,0-4.45
		c-1.9,0-3.36,0-4.82,0c-19.96,0-39.92,0.02-59.88,0c-16.41-0.02-25.69-9.34-25.69-25.78c0-45.91,0-91.82,0-137.73
		c0-16.33,9.41-25.73,25.79-25.76c7.61-0.01,15.22,0,22.83,0c1.33,0,2.67,0,4.4,0c0-1.94,0-3.4,0-4.87c0-21.96-0.01-43.91,0-65.87
		c0-5.8,1.54-7.35,7.24-7.36c9.85-0.01,19.7,0,30.12,0c0-3.5,0-6.82,0-10.14c0-5.74-0.02-11.48,0.01-17.22
		c0.03-5.48,1.63-7.07,7.15-7.07c34.06-0.01,68.11,0,102.17,0c18.96,0,37.92,0,56.89,0c6.46,0,7.79,1.35,7.79,7.94
		c0.01,8.7,0,17.4,0,26.49c9.23,0,18.05,0,26.87,0c10.2,0,10.5,0.3,10.5,10.48c0,20.96,0,41.92,0,62.87c0,1.36,0,2.71,0,4.49
		c1.54,0.1,2.85,0.24,4.15,0.25c8.11,0.02,16.22-0.05,24.33,0.03c14.84,0.14,24.53,9.91,24.54,24.75c0.02,46.66,0.02,93.31,0,139.97
		c-0.01,14.66-9.65,24.44-24.32,24.51c-20.46,0.09-40.92,0.02-61.38,0.03C388.71,546.41,387.36,546.41,385.39,546.41z M174,535.74
		c0-1.86,0-3.22,0-4.58c0-17.21-0.01-34.42,0-51.63c0-5.8,1.54-7.36,7.24-7.36c78.07-0.01,156.15-0.01,234.22,0
		c5.73,0,7.28,1.55,7.29,7.32c0.01,17.34,0,34.67,0.01,52.01c0,1.34,0,2.67,0,3.81c0.63,0.31,0.85,0.5,1.06,0.5
		c8.85,0.05,17.7,0.12,26.56,0.11c10.15,0,14.93-4.77,14.93-14.83c0-46.15,0-92.29,0-138.44c0-10.06-4.86-15.03-14.82-15.03
		c-101.39-0.01-202.79-0.01-304.18,0c-9.99,0-14.84,4.93-14.84,14.99c0,35.67,0,71.34,0,107.01c0,11.1-0.05,22.2,0.02,33.3
		c0.04,6.57,4.34,12.4,10.39,12.68C152.4,536.09,162.99,535.74,174,535.74z M374.75,255.31c-51.16,0-101.88,0-152.66,0
		c0,33.96,0,67.7,0,101.49c51.03,0,101.82,0,152.66,0C374.75,322.83,374.75,289.18,374.75,255.31z M222.01,588.73
		c51.15,0,101.84,0,152.66,0c0-35.4,0-70.59,0-105.83c-51.03,0-101.82,0-152.66,0C222.01,518.28,222.01,553.4,222.01,588.73z
		 M184.7,289.64c0,22.62,0,44.87,0,67.28c8.88,0,17.54,0,26.35,0c0-22.55,0-44.88,0-67.28C202.17,289.64,193.6,289.64,184.7,289.64z
		 M385.64,289.64c0,22.66,0,44.9,0,67.27c8.92,0,17.58,0,26.32,0c0-22.56,0-44.89,0-67.27C403.07,289.64,394.5,289.64,385.64,289.64
		z M184.71,482.76c0,17.85,0,35.33,0,52.98c8.88,0,17.53,0,26.34,0c0-17.76,0-35.33,0-52.98
		C202.17,482.76,193.6,482.76,184.71,482.76z M385.58,535.67c9.09,0,17.74,0,26.47,0c0-17.74,0-35.22,0-52.72
		c-8.96,0-17.69,0-26.47,0C385.58,500.65,385.58,518.03,385.58,535.67z"/>
	<path class="st0" d="M190.28,403.55c-11.46,0-22.93,0.01-34.39-0.01c-1.24,0-2.51,0.03-3.72-0.19c-2.7-0.5-4.52-2.42-4.04-4.93
		c0.35-1.83,2.11-3.63,3.68-4.91c0.87-0.71,2.63-0.43,3.99-0.43c23.05-0.02,46.1-0.02,69.15-0.01c1,0,2.01-0.06,2.98,0.1
		c2.95,0.5,4.78,2.17,4.68,5.3c-0.1,3.1-1.89,4.8-4.95,4.99c-2.36,0.14-4.73,0.08-7.1,0.08
		C210.46,403.55,200.37,403.55,190.28,403.55z"/>
	<path class="st0" d="M363.64,412.46c-7.96,0.05-14.33-6.19-14.35-14.07c-0.02-7.84,6.39-14.26,14.25-14.27
		c7.63-0.01,14.06,6.33,14.16,13.98C377.81,406.01,371.54,412.41,363.64,412.46z M359.2,397.6c0.02,0.59,0.04,1.18,0.06,1.77
		c1.51,0.86,3.11,2.5,4.51,2.35c1.25-0.13,3.23-2.3,3.16-3.47c-0.07-1.26-2.12-3.3-3.38-3.35
		C362.15,394.83,360.66,396.62,359.2,397.6z"/>
	<path class="st0" d="M434.65,412.46c-7.95,0-14.28-6.29-14.25-14.17c0.03-7.83,6.51-14.23,14.35-14.17
		c7.65,0.06,14.02,6.43,14.06,14.08C448.86,406.1,442.56,412.45,434.65,412.46z M438.84,399.18c0.02-0.55,0.03-1.09,0.05-1.64
		c-1.47-0.96-2.98-2.72-4.4-2.65c-1.25,0.07-3.15,2.03-3.42,3.42c-0.43,2.21,1.31,3.93,3.64,3.51
		C436.2,401.55,437.47,400.1,438.84,399.18z"/>
	<path class="st0" d="M398.96,412.46c-7.97-0.05-14.16-6.36-14.05-14.31c0.11-7.87,6.59-14.18,14.42-14.03
		c7.67,0.14,13.91,6.53,13.88,14.21C413.18,406.3,406.91,412.51,398.96,412.46z M400,394.11c-0.54-0.01-1.08-0.01-1.62-0.02
		c-0.98,1.33-2.51,2.55-2.8,4.02c-0.45,2.24,1.11,4.09,3.4,3.68c1.38-0.25,3.37-2.02,3.47-3.24
		C402.55,397.15,400.89,395.6,400,394.11z"/>
	<path class="st0" d="M367.42,295.4c0,4.85,0.06,9.7-0.02,14.54c-0.06,3.84-1.98,5.93-5.19,5.92c-3.15-0.01-5.2-2.17-5.23-5.97
		c-0.09-9.69-0.09-19.39,0-29.08c0.03-3.7,2.24-6.01,5.28-6c3.03,0.01,5.08,2.34,5.14,6.05C367.47,285.7,367.42,290.55,367.42,295.4
		z"/>
	<path class="st0" d="M298.59,508.09c-14.2,0-28.41,0-42.61,0c-1.12,0-2.28,0.11-3.35-0.13c-2.75-0.61-4.4-2.39-4.33-5.27
		c0.06-2.7,1.68-4.37,4.27-4.95c1.07-0.24,2.23-0.13,3.35-0.13c28.28-0.01,56.57,0,84.85,0c0.75,0,1.5-0.03,2.24,0.02
		c3.35,0.22,5.69,2.42,5.45,5.37c-0.26,3.21-2.19,4.95-5.39,5.05c-3.36,0.11-6.73,0.03-10.09,0.03
		C321.52,508.1,310.05,508.09,298.59,508.09z"/>
	<path class="st0" d="M298.39,524.56c14.08,0,28.16,0,42.24,0c1,0,2.01-0.08,2.99,0.06c2.99,0.42,4.83,2.16,4.82,5.2
		c-0.01,3.04-1.86,4.85-4.86,5.15c-2.22,0.22-4.48,0.07-6.72,0.08c-26.79,0-53.58,0-80.37,0c-1.12,0-2.26,0.09-3.36-0.06
		c-2.99-0.41-4.83-2.15-4.82-5.2c0.01-3.04,1.87-4.77,4.86-5.16c0.98-0.13,1.99-0.05,2.99-0.05
		C270.23,524.56,284.31,524.56,298.39,524.56z"/>
	<path class="st0" d="M297.98,561.99c-14.33,0-28.66,0.08-42.98-0.09c-1.9-0.02-4.27-0.87-5.53-2.19c-0.96-1.01-1.21-3.75-0.52-5.03
		c0.79-1.45,2.92-2.84,4.6-3.01c4.19-0.43,8.46-0.15,12.69-0.15c24.55,0,49.09,0,73.64,0c1,0,2-0.04,2.99,0.02
		c3.4,0.18,5.63,2.28,5.62,5.24c-0.01,2.96-2.24,5.15-5.66,5.19c-7.6,0.09-15.2,0.03-22.8,0.03
		C312.68,561.99,305.33,561.99,297.98,561.99z"/>
</g>
</svg>
