<?xml version="1.0" encoding="utf-8"?>
<!-- Generator: Adobe Illustrator 24.0.2, SVG Export Plug-In . SVG Version: 6.00 Build 0)  -->
<svg version="1.1" id="Layer_1" xmlns="http://www.w3.org/2000/svg" xmlns:xlink="http://www.w3.org/1999/xlink" x="0px" y="0px"
	 viewBox="0 0 446.3 354.8" style="enable-background:new 0 0 446.3 354.8;" xml:space="preserve">
<style type="text/css">
	.st0{fill:#FFFFFF;}
</style>
<g>
	<path class="st0" d="M420.2,354.8h-52.3c-7.2,0-13.1-5.9-13.1-13.1v-6.5c0-10.8,8.8-19.6,19.6-19.6H394V173.5h-44.9v113.8
		c0,8.4-6.8,15.3-15.3,15.3H105.9c-8.4,0-15.3-6.8-15.3-15.3V173.5H52.3v142.1h19.6c10.8,0,19.6,8.8,19.6,19.6v6.5
		c0,7.2-5.9,13.1-13.1,13.1H26.2c-7.2,0-13.1-5.9-13.1-13.1v-6.5c0-10.8,8.8-19.6,19.6-19.6h6.5V173.5H19.6
		C8.8,173.5,0,164.7,0,153.9V32.7C0,14.7,14.7,0,32.7,0h283.7c3.6,0,6.5,2.9,6.5,6.5s-2.9,6.5-6.5,6.5H103.3
		c-1.7,13.1-8.2,20.6-14.1,27.3C83.8,46.6,79,52.1,77.8,62.3h129c3.6,0,6.5,2.9,6.5,6.5c0,3.6-2.9,6.5-6.5,6.5h-76.9V95
		c0,3.6-2.9,6.5-6.5,6.5c-3.6,0-6.5-2.9-6.5-6.5V75.4h-13.1v211.8c0,1.2,1,2.2,2.2,2.2h227.9c1.2,0,2.2-1,2.2-2.2V75.4H323V95
		c0,3.6-2.9,6.5-6.5,6.5c-3.6,0-6.5-2.9-6.5-6.5V75.4H233c-3.6,0-6.5-2.9-6.5-6.5c0-3.6,2.9-6.5,6.5-6.5h129
		c-1.1-10.2-5.9-15.7-11.4-21.9C343.7,32.7,336,23.9,336,6.5c0-3.6,2.9-6.5,6.5-6.5h71.1c18,0,32.7,14.7,32.7,32.7v121.2
		c0,10.8-8.8,19.6-19.6,19.6h-19.6v142.1h6.5c10.8,0,19.6,8.8,19.6,19.6v6.5C433.3,348.9,427.4,354.8,420.2,354.8z M374.4,328.7
		c-3.6,0-6.5,2.9-6.5,6.5v6.5h52.3v-6.5c0-3.6-2.9-6.5-6.5-6.5H374.4z M32.7,328.7c-3.6,0-6.5,2.9-6.5,6.5v6.5h52.3v-6.5
		c0-3.6-2.9-6.5-6.5-6.5H32.7z M375.3,160.4h51.5c3.6,0,6.5-2.9,6.5-6.5V75.4h-58V160.4z M349.1,160.4h13.1v-61h-13.1V160.4z
		 M77.6,160.4h13.1v-61H77.6V160.4z M13.1,75.4v78.5c0,3.6,2.9,6.5,6.5,6.5h44.9v-85H13.1z M349.1,86.3h13.1V75.4h-13.1V86.3z
		 M77.6,86.3h13.1V75.4H77.6V86.3z M375.1,62.3h58.2V32.7c0-10.8-8.8-19.6-19.6-19.6h-64c1.4,8.1,5.6,12.9,10.7,18.7
		C366.7,39,373.8,47.2,375.1,62.3L375.1,62.3z M13.1,62.3h51.6C66,47.2,73.1,39,79.4,31.8c5.1-5.8,9.3-10.6,10.7-18.7H32.7
		c-10.8,0-19.6,8.8-19.6,19.6V62.3z M309.9,276.4h-19.6c-3.6,0-6.5-2.9-6.5-6.5c0-3.6,2.9-6.5,6.5-6.5h19.6v-19.6
		c0-3.6,2.9-6.5,6.5-6.5c3.6,0,6.5,2.9,6.5,6.5v19.6C323,270.5,317.1,276.4,309.9,276.4z M149.5,276.4h-19.6
		c-7.2,0-13.1-5.9-13.1-13.1v-19.6c0-3.6,2.9-6.5,6.5-6.5s6.5,2.9,6.5,6.5v19.6h19.6c3.6,0,6.5,2.9,6.5,6.5
		C156,273.4,153.1,276.4,149.5,276.4z M413.2,50.1c-3.8,0-7-3.1-7-7s3.1-7,7-7c3.8,0,7,3.1,7,7S417.1,50.1,413.2,50.1z M387.1,50.1
		c-3.8,0-7-3.1-7-7s3.1-7,7-7c3.8,0,7,3.1,7,7S390.9,50.1,387.1,50.1z"/>
</g>
</svg>
