<?xml version="1.0" encoding="utf-8"?>
<!-- Generator: Adobe Illustrator 24.0.2, SVG Export Plug-In . SVG Version: 6.00 Build 0)  -->
<svg version="1.1" id="Layer_1" xmlns="http://www.w3.org/2000/svg" xmlns:xlink="http://www.w3.org/1999/xlink" x="0px" y="0px"
	 viewBox="0 0 17.5 25.8" style="enable-background:new 0 0 17.5 25.8;" xml:space="preserve">
<path d="M8.7,0C8.7,0,8.7,0,8.7,0C8.7,0,8.6,0,8.7,0C4.6,0.1,1.4,3.4,1.4,7.3c0,4.5,4.5,9.1,6.8,11.2c0,0,0,0,0,0
	c0.2,0.1,0.3,0.3,0.5,0.4c2.1-1.8,7.3-6.7,7.3-11.6C15.9,3.4,12.7,0.1,8.7,0z M8.7,10.4c-2.1,0-3.8-1.7-3.8-3.8
	c0-2.1,1.7-3.8,3.8-3.8c2.1,0,3.8,1.7,3.8,3.8C12.5,8.7,10.8,10.4,8.7,10.4z"/>
<path d="M8.8,25.8c-4.4,0-8.8-1.3-8.8-3.6c0-1.7,2.2-2.8,5-3.3c0.5,0.5,1.1,1,1.5,1.4c-3.1,0.3-4.8,1.3-4.8,1.9c0,0.7,2.7,2,7.1,2
	c4.4,0,7.1-1.3,7.1-2c0-0.6-1.9-1.6-5-1.9c0.5-0.4,1-0.9,1.5-1.4c2.9,0.5,5.1,1.6,5.1,3.3C17.5,24.5,13.1,25.8,8.8,25.8L8.8,25.8z"
	/>
<path d="M8.8,25.8"/>
</svg>
