<?xml version="1.0" encoding="utf-8"?>
<!-- Generator: Adobe Illustrator 24.0.2, SVG Export Plug-In . SVG Version: 6.00 Build 0)  -->
<svg version="1.1" id="Layer_1" xmlns="http://www.w3.org/2000/svg" xmlns:xlink="http://www.w3.org/1999/xlink" x="0px" y="0px"
	 viewBox="0 0 28.4 25.2" style="enable-background:new 0 0 28.4 25.2;" xml:space="preserve">
<path d="M14.2,0l14,8.7h-28L14.2,0z M28.4,22.7L28.4,22.7c0,1.4-1.1,2.5-2.5,2.5H2.5c-1.4,0-2.5-1.1-2.5-2.5V9.3C0,9.1,0,9,0,8.9
	l13.4,8.3c0,0,0,0,0.1,0c0,0,0,0,0.1,0c0.1,0,0.2,0.1,0.3,0.1c0,0,0,0,0,0c0.1,0,0.2,0,0.3,0h0c0.1,0,0.2,0,0.3,0c0,0,0,0,0,0
	c0.1,0,0.2-0.1,0.3-0.1c0,0,0,0,0.1,0c0,0,0,0,0.1,0l13.4-8.3c0,0.1,0,0.3,0,0.4V22.7z M28.4,22.7"/>
</svg>
