<?xml version="1.0" encoding="utf-8"?>
<!-- Generator: Adobe Illustrator 24.0.2, SVG Export Plug-In . SVG Version: 6.00 Build 0)  -->
<svg version="1.1" id="Capa_1" xmlns="http://www.w3.org/2000/svg" xmlns:xlink="http://www.w3.org/1999/xlink" x="0px" y="0px"
	 viewBox="0 0 8.8 7.8" style="enable-background:new 0 0 8.8 7.8;" xml:space="preserve">
<g>
	<path d="M0.8,0.5c0,0,0.1-0.1,0.1-0.1C1.2,0.2,1.6,0.1,2,0c0.5-0.2,1.7,1.8,1.1,2.1C2.9,2.2,2.2,2.4,2,2.6C1.9,2.7,2,3,2.2,3.2
		c0.5,0.4,1.2,0.9,1.7,1.3l0,0c0,0,0,0,0,0c0,0,0,0,0,0l0,0c0.5,0.4,1.2,1,1.7,1.3C5.9,6,6.2,6,6.3,5.8c0.1-0.2,0.1-0.9,0.2-1.1
		c0.1-0.6,2.4,0,2.3,0.5c0,0.4,0,0.8-0.1,1.1c0,0.1-0.1,0.1-0.1,0.2C8,7.8,6.2,8.3,4.6,7.3C4,6.9,3.4,6.5,2.9,6.1l0,0c0,0,0,0,0,0
		c0,0,0,0,0,0l0,0C2.2,5.5,1.7,5.1,1.1,4.6C-0.3,3.4-0.4,1.5,0.8,0.5z"/>
</g>
</svg>
