<?xml version="1.0" encoding="utf-8"?>
<!-- Generator: Adobe Illustrator 24.0.2, SVG Export Plug-In . SVG Version: 6.00 Build 0)  -->
<svg version="1.1" id="Layer_1" xmlns="http://www.w3.org/2000/svg" xmlns:xlink="http://www.w3.org/1999/xlink" x="0px" y="0px"
	 viewBox="0 0 48.8 48.9" style="enable-background:new 0 0 48.8 48.9;" xml:space="preserve">
<style type="text/css">
	.st0{fill:#FFFFFF;}
</style>
<g>
	<path id="XMLID_2076_" class="st0" d="M24.5,4.4c6.5,0,7.3,0,9.9,0.1c2.4,0.1,3.6,0.6,4.5,0.9c1.1,0.4,2,1,2.9,1.9
		c0.9,0.9,1.4,1.7,1.9,2.9c0.3,0.9,0.8,2.2,0.9,4.5c0.1,2.5,0.1,3.3,0.1,9.9c0,6.5,0,7.3-0.1,9.9c-0.1,2.4-0.6,3.6-0.9,4.5
		c-0.4,1.1-1,2-1.9,2.8c-0.9,0.8-1.7,1.4-2.9,1.9c-0.9,0.3-2.2,0.8-4.5,0.9c-2.5,0.1-3.3,0.1-9.9,0.1s-7.3,0-9.9-0.1
		c-2.4-0.1-3.6-0.6-4.5-0.9c-1.1-0.4-2-1-2.9-1.9c-0.9-0.9-1.4-1.7-1.9-2.8c-0.3-0.9-0.8-2.2-0.9-4.5c-0.1-2.5-0.1-3.3-0.1-9.9
		c0-6.5,0-7.3,0.1-9.9c0.2-2.5,0.7-3.8,1-4.6c0.4-1.1,1-2,1.9-2.9s1.7-1.4,2.9-1.9C11,5,12.4,4.5,14.7,4.4
		C17.1,4.4,17.9,4.4,24.5,4.4 M24.5,0c-6.6,0-7.5,0-10,0.1c-2.6,0.1-4.4,0.6-6,1.1C6.8,1.9,5.4,2.8,4.1,4.1S1.9,6.8,1.2,8.4
		s-1,3.3-1.1,6C0,17,0,17.8,0,24.5c0,6.6,0,7.5,0.1,10c0.1,2.6,0.6,4.4,1.1,6c0.7,1.7,1.4,3,2.9,4.3c1.3,1.3,2.8,2.2,4.3,2.9
		c1.5,0.6,3.3,1,6,1.1s3.4,0.1,10,0.1s7.5,0,10-0.1c2.6-0.1,4.4-0.6,6-1.1c1.7-0.7,3-1.4,4.3-2.9s2.2-2.8,2.9-4.3
		c0.7-1.5,1-3.3,1.1-6c0.1-2.6,0.1-3.4,0.1-10s0-7.5-0.1-10c-0.1-2.6-0.6-4.4-1.1-6c-0.7-1.7-1.4-3-2.9-4.3S42,2,40.4,1.3
		s-3.3-1-6-1.1C32,0,31.1,0,24.5,0"/>
	<path id="XMLID_2073_" class="st0" d="M24.5,11.9c-7,0-12.6,5.6-12.6,12.6s5.6,12.6,12.6,12.6s12.6-5.6,12.6-12.6
		S31.5,11.9,24.5,11.9 M24.5,32.7c-4.5,0-8.2-3.6-8.2-8.2s3.6-8.2,8.2-8.2s8.2,3.6,8.2,8.2S29,32.7,24.5,32.7"/>
	<path id="XMLID_2025_" class="st0" d="M40.5,11.4c0,1.7-1.3,3-3,3c-1.7,0-3-1.3-3-3s1.3-3,3-3C39.2,8.4,40.5,9.8,40.5,11.4"/>
</g>
</svg>
