<?xml version="1.0" encoding="utf-8"?>
<!-- Generator: Adobe Illustrator 24.0.2, SVG Export Plug-In . SVG Version: 6.00 Build 0)  -->
<svg version="1.1" id="Layer_1" xmlns="http://www.w3.org/2000/svg" xmlns:xlink="http://www.w3.org/1999/xlink" x="0px" y="0px"
	 viewBox="0 0 44.4 44.4" style="enable-background:new 0 0 44.4 44.4;" xml:space="preserve">
<style type="text/css">
	.st0{fill-rule:evenodd;clip-rule:evenodd;fill:#FFFFFF;}
	.st1{fill:#FFFFFF;}
</style>
<g>
	<path id="XMLID_2076_" class="st1" d="M22.2,4c5.9,0,6.6,0,9,0.1c2.2,0.1,3.3,0.5,4.1,0.8c1,0.4,1.8,0.9,2.6,1.7s1.3,1.5,1.7,2.6
		c0.3,0.8,0.7,2,0.8,4.1c0.1,2.3,0.1,3,0.1,9c0,5.9,0,6.6-0.1,9c-0.1,2.2-0.5,3.3-0.8,4.1c-0.4,1-0.9,1.8-1.7,2.5s-1.5,1.3-2.6,1.7
		c-0.8,0.3-2,0.7-4.1,0.8c-2.3,0.1-3,0.1-9,0.1s-6.6,0-9-0.1c-2.2-0.1-3.3-0.5-4.1-0.8c-1-0.4-1.8-0.9-2.6-1.7s-1.3-1.5-1.7-2.5
		c-0.3-0.8-0.7-2-0.8-4.1c-0.1-2.3-0.1-3-0.1-9c0-5.9,0-6.6,0.1-9C4.2,11,4.6,9.9,4.9,9.1c0.4-1,0.9-1.8,1.7-2.6s1.5-1.3,2.6-1.7
		c0.8-0.3,2-0.7,4.1-0.8C15.5,4,16.2,4,22.2,4 M22.2,0c-6,0-6.8,0-9.1,0.1c-2.4,0.1-4,0.5-5.4,1C6.2,1.7,4.9,2.5,3.7,3.7
		s-2,2.5-2.6,3.9c-0.6,1.4-0.9,3-1,5.4C0,15.4,0,16.1,0,22.2c0,6,0,6.8,0.1,9.1c0.1,2.4,0.5,4,1,5.4c0.6,1.5,1.3,2.7,2.6,3.9
		c1.2,1.2,2.5,2,3.9,2.6c1.4,0.5,3,0.9,5.4,1c2.4,0.1,3.1,0.1,9.1,0.1c6,0,6.8,0,9.1-0.1c2.4-0.1,4-0.5,5.4-1
		c1.5-0.6,2.7-1.3,3.9-2.6s2-2.5,2.6-3.9c0.6-1.4,0.9-3,1-5.4c0.1-2.4,0.1-3.1,0.1-9.1c0-6,0-6.8-0.1-9.1c-0.1-2.4-0.5-4-1-5.4
		c-0.6-1.5-1.3-2.7-2.6-3.9s-2.5-2-3.9-2.6c-1.4-0.6-3-0.9-5.4-1C29,0,28.2,0,22.2,0"/>
	<path id="XMLID_2073_" class="st1" d="M22.2,10.8c-6.3,0-11.4,5.1-11.4,11.4c0,6.3,5.1,11.4,11.4,11.4s11.4-5.1,11.4-11.4
		S28.5,10.8,22.2,10.8 M22.2,29.6c-4.1,0-7.4-3.3-7.4-7.4c0-4.1,3.3-7.4,7.4-7.4s7.4,3.3,7.4,7.4C29.6,26.3,26.3,29.6,22.2,29.6"/>
	<path id="XMLID_2025_" class="st1" d="M36.7,10.3c0,1.5-1.2,2.7-2.7,2.7s-2.7-1.2-2.7-2.7s1.2-2.7,2.7-2.7S36.7,8.9,36.7,10.3"/>
</g>
</svg>
