<?xml version="1.0" encoding="utf-8"?>
<!-- Generator: Adobe Illustrator 24.0.2, SVG Export Plug-In . SVG Version: 6.00 Build 0)  -->
<svg version="1.1" id="Layer_1" xmlns="http://www.w3.org/2000/svg" xmlns:xlink="http://www.w3.org/1999/xlink" x="0px" y="0px"
	 viewBox="0 0 44.4 44.4" style="enable-background:new 0 0 44.4 44.4;" xml:space="preserve">
<style type="text/css">
	.st0{fill-rule:evenodd;clip-rule:evenodd;fill:#FFFFFF;}
	.st1{fill:#FFFFFF;}
</style>
<g>
	<path id="XMLID_2127_" class="st0" d="M44.4,21.1C44.1,9.4,34.4,0,22.6,0C10.9,0,1.3,9.2,0.8,20.7c0,0.3,0,0.6,0,1
		c0,4.1,1.1,7.9,3.1,11.2L0,44.4l12.1-3.8c3.1,1.7,6.7,2.7,10.5,2.7c12,0,21.8-9.7,21.8-21.6C44.4,21.4,44.4,21.3,44.4,21.1z
		 M22.6,39.8c-3.7,0-7.2-1.1-10.1-3l-7,2.2l2.3-6.8c-2.2-3-3.5-6.7-3.5-10.7c0-0.6,0-1.2,0.1-1.8c0.9-9.2,8.7-16.4,18.2-16.4
		c9.6,0,17.5,7.4,18.3,16.8c0,0.5,0.1,0.9,0.1,1.4C40.9,31.6,32.7,39.8,22.6,39.8z"/>
	<path id="XMLID_2126_" class="st0" d="M32.6,26c-0.5-0.3-3.2-1.5-3.6-1.7c-0.5-0.2-0.9-0.3-1.2,0.3c-0.4,0.5-1.4,1.7-1.7,2.1
		c-0.3,0.4-0.6,0.4-1.2,0.1c-0.5-0.3-2.3-0.8-4.3-2.6c-1.6-1.4-2.7-3.1-3-3.7s0-0.8,0.2-1.1c0.2-0.2,0.5-0.6,0.8-0.9
		c0.1-0.1,0.1-0.2,0.2-0.3c0.1-0.2,0.2-0.4,0.3-0.6c0.2-0.4,0.1-0.7,0-0.9c-0.1-0.3-1.2-2.9-1.6-3.9c-0.4-1.1-0.9-0.9-1.2-0.9
		s-0.7-0.1-1-0.1s-0.9,0.1-1.4,0.7S12,14.2,12,16.8c0,0.6,0.1,1.2,0.3,1.8c0.5,1.9,1.7,3.4,1.9,3.7c0.3,0.4,3.7,5.9,9.1,8
		c5.4,2.1,5.4,1.4,6.4,1.3c1-0.1,3.2-1.3,3.6-2.5c0.5-1.2,0.5-2.3,0.3-2.5C33.5,26.4,33.1,26.3,32.6,26z"/>
</g>
</svg>
