<svg id="Layer_1" data-name="Layer 1" xmlns="http://www.w3.org/2000/svg" xmlns:xlink="http://www.w3.org/1999/xlink" viewBox="0 0 560.45 50.98"><defs><style>.cls-1,.cls-2{fill:#fff;}.cls-1{fill-rule:evenodd;}</style></defs><title>SOCIAL MEDIA ICONS</title><g id="Objects"><path class="cls-1" d="M453.23,257.1a21.8,21.8,0,0,0-43.55-.39c0,.32,0,.63,0,1a21.44,21.44,0,0,0,3.12,11.17l-3.93,11.6,12.07-3.84a21.82,21.82,0,0,0,32.32-18.94C453.24,257.47,453.24,257.28,453.23,257.1Zm-21.78,18.73a18.25,18.25,0,0,1-10.08-3l-7,2.24,2.28-6.75a18,18,0,0,1-3.49-10.66,17.14,17.14,0,0,1,.09-1.76,18.33,18.33,0,0,1,36.49.35c0,.47.06.94.06,1.42A18.25,18.25,0,0,1,431.45,275.83Z" transform="translate(-62.95 -231.7)"/><path class="cls-1" d="M441.44,262c-.54-.26-3.16-1.55-3.65-1.72s-.85-.27-1.2.27-1.39,1.72-1.69,2.07-.62.4-1.16.13a14.67,14.67,0,0,1-4.29-2.63,16.07,16.07,0,0,1-3-3.66c-.31-.53,0-.82.23-1.08s.53-.62.81-.93l.19-.26c.12-.19.21-.38.34-.63a1,1,0,0,0,0-.93c-.13-.27-1.2-2.88-1.65-3.94s-.89-.88-1.2-.88-.66-.05-1-.05a2,2,0,0,0-1.43.66,5.94,5.94,0,0,0-1.87,4.43,6.57,6.57,0,0,0,.28,1.81,11.72,11.72,0,0,0,1.91,3.67c.26.35,3.69,5.88,9.12,8s5.44,1.41,6.42,1.32,3.16-1.28,3.6-2.52a4.42,4.42,0,0,0,.32-2.52A3.06,3.06,0,0,0,441.44,262Z" transform="translate(-62.95 -231.7)"/><rect class="cls-2" x="171.34" y="17.5" width="8.37" height="27.05"/><path class="cls-2" d="M238.44,245.66a5,5,0,1,0-4.95-5A5,5,0,0,0,238.44,245.66Z" transform="translate(-62.95 -231.7)"/><path class="cls-2" d="M256.05,262.05c0-3.8,1.75-6.07,5.1-6.07,3.08,0,4.56,2.17,4.56,6.07v14.2H274V259.12c0-7.25-4.11-10.75-9.84-10.75a9.42,9.42,0,0,0-8.15,4.47V249.2h-8v27.05h8Z" transform="translate(-62.95 -231.7)"/><path class="cls-2" d="M68.07,282.68h9.85V258h6.87l.73-8.26h-7.6v-4.7c0-1.95.39-2.72,2.27-2.72h5.33v-8.57H78.7c-7.33,0-10.63,3.23-10.63,9.41v6.58H63v8.36h5.12Z" transform="translate(-62.95 -231.7)"/><path class="cls-2" d="M163.44,240c5.92,0,6.62,0,9,.13a12.45,12.45,0,0,1,4.12.76,6.79,6.79,0,0,1,2.55,1.66,6.87,6.87,0,0,1,1.66,2.55,12.19,12.19,0,0,1,.76,4.12c.11,2.34.13,3,.13,9s0,6.62-.13,9a12.45,12.45,0,0,1-.76,4.12,6.79,6.79,0,0,1-1.66,2.55,6.87,6.87,0,0,1-2.55,1.66,12.19,12.19,0,0,1-4.12.76c-2.34.11-3,.13-9,.13s-6.63,0-9-.13a12.45,12.45,0,0,1-4.12-.76,6.79,6.79,0,0,1-2.55-1.66,6.87,6.87,0,0,1-1.66-2.55,12.19,12.19,0,0,1-.76-4.12c-.11-2.34-.13-3-.13-9s0-6.63.13-9a12.45,12.45,0,0,1,.76-4.12,6.79,6.79,0,0,1,1.66-2.55,6.87,6.87,0,0,1,2.55-1.66,12.19,12.19,0,0,1,4.12-.76c2.33-.1,3-.13,9-.13m0-4c-6,0-6.78,0-9.15.13a16.27,16.27,0,0,0-5.38,1,11.35,11.35,0,0,0-6.49,6.49,16.27,16.27,0,0,0-1,5.38c-.11,2.37-.13,3.12-.13,9.15s0,6.78.13,9.15a16.27,16.27,0,0,0,1,5.38,10.8,10.8,0,0,0,2.56,3.93,10.93,10.93,0,0,0,3.93,2.56,16.27,16.27,0,0,0,5.38,1c2.37.11,3.12.13,9.15.13s6.78,0,9.15-.13a16.27,16.27,0,0,0,5.38-1,11.35,11.35,0,0,0,6.49-6.49,16.27,16.27,0,0,0,1-5.38c.11-2.37.13-3.12.13-9.15s0-6.78-.13-9.15a16.27,16.27,0,0,0-1-5.38A11.35,11.35,0,0,0,178,237.2a16.27,16.27,0,0,0-5.38-1c-2.37-.11-3.13-.13-9.15-.13" transform="translate(-62.95 -231.7)"/><path class="cls-2" d="M163.44,246.83a11.39,11.39,0,1,0,11.39,11.39,11.39,11.39,0,0,0-11.39-11.39m0,18.79a7.39,7.39,0,1,1,7.39-7.39,7.39,7.39,0,0,1-7.39,7.39" transform="translate(-62.95 -231.7)"/><path class="cls-2" d="M177.94,246.38a2.66,2.66,0,1,1-2.66-2.66,2.66,2.66,0,0,1,2.66,2.66" transform="translate(-62.95 -231.7)"/><path class="cls-2" d="M334.77,275.8a9,9,0,0,0,3.75-1.67,9.2,9.2,0,0,0,2.35-2.61,9.76,9.76,0,0,0,1.48-5.29,8.79,8.79,0,0,0-1.29-4.86,7.4,7.4,0,0,0-3.83-2.93,8,8,0,0,0,2.53-1.89,7.42,7.42,0,0,0,1.54-4.89,8.5,8.5,0,0,0-1.52-5.07q-2.53-3.43-8.6-3.53h-16v33.18h14.95A22.35,22.35,0,0,0,334.77,275.8Zm-13-27H329a12.31,12.31,0,0,1,3.92.52,3,3,0,0,1,1.78,3.06,3.14,3.14,0,0,1-1.35,2.92,6.66,6.66,0,0,1-3.51.82h-8.07v-7.32Zm0,21.66v-8.85h8.17a8.32,8.32,0,0,1,3.32.56,3.56,3.56,0,0,1,2.11,3.56q0,3.06-2.18,4.14a7.83,7.83,0,0,1-3.36.58h-8.06Z" transform="translate(-62.95 -231.7)"/><path class="cls-2" d="M348,273.23a13.4,13.4,0,0,0,8.64,3q5.94,0,9.23-3.58a8,8,0,0,0,2.38-4.43h-6.55a5,5,0,0,1-4.88,2.82,6.57,6.57,0,0,1-3.54-.92q-2.42-1.49-2.57-5.18h17.87a32,32,0,0,0-.21-4.87,12,12,0,0,0-2-5.07,10,10,0,0,0-4.24-3.63,13.89,13.89,0,0,0-5.77-1.15,11.81,11.81,0,0,0-8.77,3.4q-3.37,3.41-3.38,9.78Q344.22,270.21,348,273.23Zm4.58-16.31a5.11,5.11,0,0,1,3.83-1.4,5.66,5.66,0,0,1,3.81,1.32,5.39,5.39,0,0,1,1.71,3.88h-11A6.57,6.57,0,0,1,352.55,256.92Z" transform="translate(-62.95 -231.7)"/><rect class="cls-2" x="285.8" y="12.44" width="14.42" height="3.35"/></g><image width="164" height="65" transform="translate(437.05 0) scale(0.75)" xlink:href="../livro_reclamacao.png"/></svg>