<?xml version="1.0" encoding="utf-8"?>
<!-- Generator: Adobe Illustrator 24.0.2, SVG Export Plug-In . SVG Version: 6.00 Build 0)  -->
<svg version="1.1" id="Layer_1" xmlns="http://www.w3.org/2000/svg" xmlns:xlink="http://www.w3.org/1999/xlink" x="0px" y="0px"
	 viewBox="0 0 48.8 48.9" style="enable-background:new 0 0 48.8 48.9;" xml:space="preserve">
<style type="text/css">
	.st0{fill:#FFFFFF;}
</style>
<g>
	<rect id="XMLID_2100_" x="1" y="16.2" class="st0" width="10.1" height="32.6"/>
	<path id="XMLID_2098_" class="st0" d="M5.9,12c3.2,0,5.9-2.6,5.9-6S9.1,0,5.9,0S0,2.6,0,6C0,9.3,2.6,12,5.9,12z"/>
	<path id="XMLID_2096_" class="st0" d="M27.2,31.7c0-4.6,2.2-7.3,6.1-7.3c3.7,0,5.5,2.6,5.5,7.3s0,17.1,0,17.1h10c0,0,0-11.9,0-20.5
		s-4.9-13-11.8-13s-9.7,5.4-9.7,5.4v-4.3h-9.6v32.6h9.6C27.2,48.8,27.2,36.6,27.2,31.7z"/>
</g>
</svg>
