<?xml version="1.0" encoding="utf-8"?>
<!-- Generator: Adobe Illustrator 24.0.2, SVG Export Plug-In . SVG Version: 6.00 Build 0)  -->
<svg version="1.1" id="Layer_1" xmlns="http://www.w3.org/2000/svg" xmlns:xlink="http://www.w3.org/1999/xlink" x="0px" y="0px"
	 viewBox="0 0 48.9 48.9" style="enable-background:new 0 0 48.9 48.9;" xml:space="preserve">
<style type="text/css">
	.st0{fill-rule:evenodd;clip-rule:evenodd;fill:#FFFFFF;}
</style>
<g>
	<path id="XMLID_2127_" class="st0" d="M48.9,23.2C48.6,10.4,37.9,0,24.9,0C12,0,1.4,10.1,0.9,22.8c0,0.3,0,0.7,0,1.1
		c0,4.5,1.2,8.7,3.4,12.3L0,48.9l13.3-4.2c3.4,1.9,7.4,3,11.6,3c13.2,0,24-10.7,24-23.8C48.9,23.6,48.9,23.5,48.9,23.2z M24.9,43.8
		c-4.1,0-7.9-1.2-11.1-3.3L6.1,43l2.5-7.5c-2.4-3.3-3.9-7.4-3.9-11.8c0-0.7,0-1.3,0.1-2c1-10.1,9.6-18.1,20-18.1
		c10.6,0,19.3,8.2,20.2,18.5c0,0.6,0.1,1,0.1,1.5C45.1,34.8,36,43.8,24.9,43.8z"/>
	<path id="XMLID_2126_" class="st0" d="M35.9,28.6c-0.6-0.3-3.5-1.7-4-1.9c-0.6-0.2-1-0.3-1.3,0.3c-0.4,0.6-1.5,1.9-1.9,2.3
		c-0.3,0.4-0.7,0.4-1.3,0.1c-0.6-0.3-2.5-0.9-4.7-2.9c-1.8-1.5-3-3.4-3.3-4.1s0-0.9,0.2-1.2c0.2-0.2,0.6-0.7,0.9-1
		c0.1-0.1,0.1-0.2,0.2-0.3c0.1-0.2,0.2-0.4,0.3-0.7c0.2-0.4,0.1-0.8,0-1c-0.1-0.3-1.3-3.2-1.8-4.3c-0.4-1.2-1-1-1.3-1
		S17.2,13,16.9,13c-0.3,0-1,0.1-1.5,0.8s-2.1,1.9-2.1,4.7c0,0.7,0.1,1.3,0.3,2c0.6,2.1,1.9,3.7,2.1,4.1c0.3,0.4,4.1,6.5,10,8.8
		s5.9,1.5,7,1.4s3.5-1.4,4-2.8c0.6-1.3,0.6-2.5,0.3-2.8C36.9,29.1,36.5,29,35.9,28.6z"/>
</g>
</svg>
