<?xml version="1.0" encoding="utf-8"?>
<!-- Generator: Adobe Illustrator 24.0.2, SVG Export Plug-In . SVG Version: 6.00 Build 0)  -->
<svg version="1.1" id="Layer_1" xmlns="http://www.w3.org/2000/svg" xmlns:xlink="http://www.w3.org/1999/xlink" x="0px" y="0px"
	 viewBox="0 0 53.4 33.2" style="enable-background:new 0 0 53.4 33.2;" xml:space="preserve">
<style type="text/css">
	.st0{fill-rule:evenodd;clip-rule:evenodd;fill:#FFFFFF;}
	.st1{fill:#FFFFFF;}
</style>
<g>
	<path id="XMLID_2003_" class="st1" d="M19.6,32.7c1.4-0.3,2.7-0.9,3.8-1.7c0.9-0.7,1.7-1.6,2.4-2.6c1-1.6,1.5-3.3,1.5-5.3
		c0-1.9-0.4-3.5-1.3-4.9c-0.9-1.3-2.1-2.3-3.8-2.9c1.1-0.6,2-1.2,2.5-1.9c1-1.2,1.5-2.9,1.5-4.9c0-2-0.5-3.6-1.5-5.1
		C23,1.2,20.1,0.1,16,0H0v33.2h15C16.6,33.2,18.2,33,19.6,32.7z M6.6,5.8h7.2c1.6,0,2.9,0.2,3.9,0.5c1.2,0.5,1.8,1.5,1.8,3.1
		c0,1.4-0.5,2.4-1.4,2.9s-2.1,0.8-3.5,0.8H6.6L6.6,5.8L6.6,5.8z M6.6,27.4v-8.9h8.2c1.4,0,2.5,0.2,3.3,0.6c1.4,0.6,2.1,1.8,2.1,3.6
		c0,2-0.7,3.4-2.2,4.1c-0.8,0.4-1.9,0.6-3.4,0.6L6.6,27.4L6.6,27.4z"/>
	<path id="XMLID_2000_" class="st1" d="M32.8,30.2c2.5,2,5.4,3,8.6,3c4,0,7-1.2,9.2-3.6c1.4-1.5,2.2-3,2.4-4.4h-6.5
		c-0.4,0.7-0.8,1.3-1.3,1.7c-0.9,0.8-2.1,1.1-3.6,1.1c-1.4,0-2.6-0.3-3.5-0.9c-1.6-1-2.5-2.7-2.6-5.2h17.9c0-2.1,0-3.7-0.2-4.9
		c-0.3-1.9-1-3.6-2-5.1c-1.1-1.6-2.5-2.9-4.2-3.6s-3.6-1.1-5.8-1.1c-3.6,0-6.5,1.1-8.8,3.4c-2.3,2.3-3.4,5.5-3.4,9.8
		C29.1,24.9,30.3,28.2,32.8,30.2z M37.4,13.9c0.9-0.9,2.2-1.4,3.8-1.4c1.5,0,2.8,0.4,3.8,1.3c1,0.9,1.6,2.2,1.7,3.9h-11
		C35.9,16.1,36.5,14.8,37.4,13.9z"/>
	<rect id="XMLID_1999_" x="33.6" y="1.1" class="st1" width="14.4" height="3.4"/>
</g>
</svg>
