<?xml version="1.0" encoding="utf-8"?>
<!-- Generator: Adobe Illustrator 24.0.2, SVG Export Plug-In . SVG Version: 6.00 Build 0)  -->
<svg version="1.1" id="Layer_1" xmlns="http://www.w3.org/2000/svg" xmlns:xlink="http://www.w3.org/1999/xlink" x="0px" y="0px"
	 viewBox="0 0 40.5 40.6" style="enable-background:new 0 0 40.5 40.6;" xml:space="preserve">
<style type="text/css">
	.st0{fill-rule:evenodd;clip-rule:evenodd;fill:#FFFFFF;}
	.st1{fill:#FFFFFF;}
</style>
<g>
	<rect id="XMLID_2100_" x="0.8" y="13.5" class="st1" width="8.4" height="27.1"/>
	<path id="XMLID_2098_" class="st1" d="M4.9,10c2.7,0,4.9-2.2,4.9-5c0-2.8-2.2-5-4.9-5C2.2,0,0,2.2,0,5C0,7.7,2.2,10,4.9,10z"/>
	<path id="XMLID_2096_" class="st1" d="M22.6,26.4c0-3.8,1.8-6.1,5.1-6.1c3.1,0,4.6,2.2,4.6,6.1s0,14.2,0,14.2h8.3c0,0,0-9.9,0-17.1
		s-4.1-10.8-9.8-10.8c-5.7,0-8.1,4.5-8.1,4.5v-3.6h-8v27.1h8C22.6,40.6,22.6,30.5,22.6,26.4z"/>
</g>
</svg>
