<?xml version="1.0" encoding="utf-8"?>
<!-- Generator: Adobe Illustrator 24.0.2, SVG Export Plug-In . SVG Version: 6.00 Build 0)  -->
<svg version="1.1" id="Layer_1" xmlns="http://www.w3.org/2000/svg" xmlns:xlink="http://www.w3.org/1999/xlink" x="0px" y="0px"
	 viewBox="0 0 78.7 48.9" style="enable-background:new 0 0 78.7 48.9;" xml:space="preserve">
<style type="text/css">
	.st0{fill:#FFFFFF;}
</style>
<g>
	<path id="XMLID_2003_" class="st0" d="M28.9,48.2c2.1-0.4,4-1.3,5.6-2.5c1.3-1,2.5-2.4,3.5-3.8c1.5-2.4,2.2-4.9,2.2-7.8
		c0-2.8-0.6-5.2-1.9-7.2c-1.3-1.9-3.1-3.4-5.6-4.3c1.6-0.9,2.9-1.8,3.7-2.8c1.5-1.8,2.2-4.3,2.2-7.2S37.9,7.2,36.4,5
		c-2.5-3.2-6.8-4.9-12.8-5H0v48.9h22.1C24.5,48.9,26.8,48.6,28.9,48.2z M9.7,8.5h10.6c2.4,0,4.3,0.3,5.7,0.7
		c1.8,0.7,2.7,2.2,2.7,4.6c0,2.1-0.7,3.5-2.1,4.3c-1.3,0.7-3.1,1.2-5.2,1.2H9.7V8.5L9.7,8.5z M9.7,40.4V27.3h12.1
		c2.1,0,3.7,0.3,4.9,0.9c2.1,0.9,3.1,2.7,3.1,5.3c0,2.9-1,5-3.2,6c-1.2,0.6-2.8,0.9-5,0.9L9.7,40.4L9.7,40.4z"/>
	<path id="XMLID_2000_" class="st0" d="M48.3,44.5c3.7,2.9,8,4.4,12.7,4.4c5.9,0,10.3-1.8,13.6-5.3c2.1-2.2,3.2-4.4,3.5-6.5h-9.6
		c-0.6,1-1.2,1.9-1.9,2.5c-1.3,1.2-3.1,1.6-5.3,1.6c-2.1,0-3.8-0.4-5.2-1.3c-2.4-1.5-3.7-4-3.8-7.7h26.4c0-3.1,0-5.5-0.3-7.2
		c-0.4-2.8-1.5-5.3-2.9-7.5c-1.6-2.4-3.7-4.3-6.2-5.3c-2.5-1-5.3-1.6-8.5-1.6c-5.3,0-9.6,1.6-13,5c-3.4,3.4-5,8.1-5,14.4
		C42.9,36.7,44.6,41.5,48.3,44.5z M55.1,20.5c1.3-1.3,3.2-2.1,5.6-2.1c2.2,0,4.1,0.6,5.6,1.9c1.5,1.3,2.4,3.2,2.5,5.7H52.6
		C52.9,23.7,53.8,21.8,55.1,20.5z"/>
	<rect id="XMLID_1999_" x="49.5" y="1.6" class="st0" width="21.2" height="5"/>
</g>
</svg>
